<svg width="132" height="113" viewBox="0 0 132 113" fill="none" xmlns="http://www.w3.org/2000/svg">
<path d="M131.584 6.02C131.324 4.75999 130.724 3.57001 129.884 2.6C129.044 1.62999 127.954 0.870003 126.744 0.43C126.484 0.34 126.224 0.26 125.964 0.2C125.954 0.2 125.934 0.2 125.924 0.19C125.804 0.16 125.674 0.14 125.544 0.11C125.504 0.11 125.464 0.09 125.424 0.09C125.324 0.0699999 125.224 0.0600001 125.114 0.05C125.044 0.05 124.984 0.03 124.924 0.03C124.834 0.03 124.754 0.0200001 124.664 0.01C124.584 0.01 124.504 0 124.424 0C124.344 0 124.254 0 124.174 0C124.094 0 124.014 0 123.934 0C123.834 0 123.724 0.00999995 123.624 0.02C123.564 0.02 123.504 0.02 123.444 0.03C123.284 0.0400001 123.124 0.0699999 122.964 0.09C122.964 0.09 122.954 0.09 122.944 0.09H122.904L95.8243 3.94L68.6943 7.71L14.4143 15.04L7.6243 15.96C7.0843 16.03 6.4343 16.13 5.8443 16.31C5.2443 16.49 4.6743 16.75 4.1343 17.06C3.0543 17.68 2.1243 18.56 1.4243 19.6C0.724297 20.64 0.254297 21.83 0.0842968 23.08C-0.0057032 23.7 -0.0257032 24.33 0.0342968 24.96L0.0842968 25.42L0.144297 25.84L0.254297 26.69L1.1643 33.46L3.14641 49.2022C4.39641 58.2323 5.60642 67.2624 6.88642 76.2824L7.83642 83.0524L7.89642 83.4724L7.97642 83.9424C8.03642 84.2624 8.11642 84.5824 8.20642 84.8924C8.39642 85.5225 8.65642 86.1224 8.98642 86.6925C9.64642 87.8225 10.5564 88.8125 11.6464 89.5425C12.7264 90.2825 13.9864 90.7725 15.2864 90.9525C15.9364 91.0425 16.6064 91.0725 17.2464 91.0125L18.9564 90.8825L25.2764 90.4025C32.1764 96.8825 39.0164 103.433 45.8364 110.003L48.1864 112.263L47.7064 109.043L44.6764 88.7825L62.5764 87.3125L81.5664 85.7225L100.556 84.1324L110.046 83.3324C110.246 83.3124 110.436 83.3024 110.646 83.2824C110.856 83.2524 111.066 83.2424 111.276 83.2024C111.696 83.1224 112.106 83.0224 112.506 82.8824C113.306 82.6024 114.066 82.2024 114.746 81.6924C116.106 80.6824 117.126 79.2324 117.626 77.6124V77.5724L117.646 77.5424L131.394 9.81C131.774 8.57999 131.854 7.25001 131.594 5.99L131.584 6.02Z" fill="#D01F98"/>
<path d="M106.552 58.4605C105.591 58.5591 104.654 58.5428 103.74 58.4115C102.839 58.2649 102.113 58.0441 101.562 57.7489L102.408 55.2989C102.956 55.5662 103.589 55.7685 104.306 55.9059C105.036 56.0278 105.742 56.0538 106.424 55.9838C107.176 55.9066 107.695 55.7618 107.983 55.5494C108.285 55.3356 108.419 55.0686 108.386 54.7485C108.359 54.484 108.214 54.302 107.95 54.2024C107.699 54.0875 107.368 54.016 106.958 53.9878C106.547 53.9597 106.094 53.9358 105.6 53.9162C105.119 53.8952 104.63 53.854 104.131 53.7927C103.631 53.7175 103.167 53.5822 102.739 53.387C102.311 53.1918 101.951 52.9053 101.659 52.5273C101.381 52.1479 101.209 51.6381 101.143 50.9978C101.071 50.2879 101.208 49.6408 101.556 49.0564C101.918 48.4707 102.473 47.9847 103.221 47.5984C103.968 47.1982 104.884 46.9424 105.97 46.8309C106.735 46.7523 107.523 46.7558 108.334 46.8414C109.144 46.927 109.831 47.1027 110.392 47.3685L109.545 49.7976C108.969 49.5332 108.397 49.3739 107.829 49.3197C107.273 49.2502 106.738 49.2418 106.222 49.2947C105.499 49.369 104.98 49.5208 104.666 49.75C104.352 49.9791 104.21 50.2469 104.242 50.5531C104.27 50.8315 104.41 51.0281 104.661 51.143C104.926 51.2565 105.264 51.3343 105.677 51.3764C106.089 51.4184 106.535 51.45 107.016 51.471C107.509 51.4766 108.005 51.5171 108.505 51.5924C109.005 51.6676 109.462 51.8036 109.876 52.0002C110.303 52.1814 110.662 52.4611 110.954 52.839C111.245 53.203 111.423 53.7052 111.489 54.3455C111.56 55.0415 111.415 55.6824 111.053 56.2681C110.69 56.84 110.127 57.3197 109.365 57.7074C108.617 58.0937 107.679 58.3447 106.552 58.4605Z" fill="white"/>
<path d="M93.7633 59.6047L92.6099 48.3714L95.721 48.052L96.0469 51.2257L95.5141 50.352C95.7667 49.5243 96.2411 48.8707 96.9374 48.3913C97.6323 47.8979 98.5087 47.597 99.5666 47.4883L99.8753 50.495C99.7347 50.4954 99.6087 50.5013 99.4973 50.5127C99.3845 50.5102 99.2655 50.5154 99.1402 50.5283C98.2494 50.6198 97.552 50.9516 97.0481 51.5238C96.5566 52.0806 96.3659 52.895 96.476 53.9668L97.0205 59.2703L93.7633 59.6047Z" fill="white"/>
<path d="M86.1837 60.5518C84.903 60.6833 83.7498 60.5485 82.724 60.1474C81.712 59.7449 80.8973 59.1393 80.2797 58.3306C79.6608 57.508 79.2941 56.5399 79.1798 55.4263C79.064 54.2988 79.2193 53.2771 79.6458 52.3611C80.0847 51.4299 80.7315 50.6742 81.5863 50.0941C82.4396 49.5001 83.437 49.1445 84.5784 49.0273C85.6781 48.9144 86.6907 49.0496 87.6162 49.4328C88.5543 49.8007 89.3258 50.3967 89.9309 51.2208C90.5345 52.0309 90.8985 53.0415 91.0229 54.2525C91.0357 54.3778 91.0438 54.5247 91.047 54.6931C91.0488 54.8477 91.0499 54.9953 91.0503 55.1359L81.9258 56.0727L81.7307 54.1727L89.143 53.4116L87.9481 54.104C87.8881 53.5194 87.7176 53.0235 87.4367 52.6162C87.1557 52.209 86.7943 51.9085 86.3524 51.7148C85.9091 51.5071 85.4091 51.4318 84.8523 51.489C84.2955 51.5462 83.8142 51.7222 83.4084 52.017C83.0151 52.2965 82.723 52.6712 82.5321 53.1409C82.3398 53.5967 82.2743 54.1239 82.3358 54.7224L82.3872 55.2236C82.4501 55.836 82.6381 56.3653 82.9511 56.8114C83.2767 57.2422 83.6959 57.5579 84.2089 57.7584C84.7343 57.9436 85.3311 58.0019 85.9992 57.9333C86.5978 57.8718 87.1105 57.7278 87.5373 57.5011C87.9781 57.2729 88.3678 56.9586 88.7065 56.5581L90.6325 58.2594C90.1774 58.8969 89.5766 59.4157 88.83 59.8159C88.0819 60.2022 87.1998 60.4475 86.1837 60.5518Z" fill="white"/>
<path d="M71.7303 50.3465C72.6211 50.255 73.4332 50.3545 74.1663 50.645C74.9119 50.9201 75.5245 51.4058 76.0039 52.1021C76.4819 52.7845 76.7795 53.6964 76.8967 54.8378L77.5569 61.2688L74.2997 61.6032L73.6909 55.6734C73.598 54.7686 73.3275 54.1212 72.8796 53.7311C72.4455 53.3396 71.8666 53.181 71.1427 53.2553C70.6277 53.3082 70.1728 53.4674 69.7781 53.733C69.3958 53.9833 69.1093 54.3432 68.9184 54.813C68.7414 55.2813 68.6886 55.8634 68.7601 56.5594L69.3303 62.1134L66.0731 62.4479L64.4824 46.9551L67.7397 46.6207L68.4964 53.9912L67.6691 53.1267C67.9956 52.3335 68.514 51.6965 69.2242 51.2157C69.9345 50.7349 70.7698 50.4451 71.7303 50.3465Z" fill="white"/>
<path d="M59.2445 63.3176C58.0335 63.4419 56.9297 63.3091 55.9331 62.9191C54.9351 62.5151 54.1197 61.9026 53.4868 61.0813C52.8678 60.2587 52.5011 59.2906 52.3868 58.177C52.271 57.0495 52.4333 56.0271 52.8737 55.1097C53.3265 54.177 54.0012 53.4185 54.8977 52.8341C55.7928 52.2358 56.8459 51.8745 58.0569 51.7502C59.2401 51.6287 60.2959 51.7735 61.2243 52.1846C62.1512 52.5817 62.8707 53.2182 63.3826 54.0941L60.9955 55.7107C60.6489 55.2117 60.24 54.8598 59.7688 54.655C59.3116 54.4487 58.8254 54.3721 58.3104 54.4249C57.7536 54.4821 57.2654 54.6588 56.8457 54.9551C56.4259 55.2514 56.1074 55.6428 55.8901 56.1293C55.6867 56.6144 55.6186 57.1841 55.6858 57.8383C55.753 58.4925 55.9354 59.0365 56.2331 59.4701C56.5448 59.9023 56.9362 60.2208 57.4073 60.4256C57.8785 60.6304 58.3925 60.7043 58.9492 60.6471C59.4643 60.5942 59.9254 60.4273 60.3326 60.1464C60.7523 59.8501 61.0805 59.4155 61.3171 58.8426L63.985 59.9613C63.6603 60.9089 63.0852 61.6784 62.2597 62.2695C61.4328 62.8467 60.4277 63.1961 59.2445 63.3176Z" fill="white"/>
<path d="M47.7203 64.332L47.4952 62.1396L47.2371 61.6808L46.8341 57.7554C46.7626 57.0594 46.4911 56.5387 46.0196 56.1933C45.562 55.8464 44.8947 55.718 44.0178 55.808C43.4192 55.8695 42.8376 56.0276 42.273 56.2825C41.7209 56.5221 41.2594 56.8227 40.8886 57.1843L39.4856 55.0284C40.0538 54.534 40.7573 54.1242 41.596 53.799C42.4347 53.4737 43.2995 53.2654 44.1904 53.1739C45.9025 52.9981 47.2733 53.2653 48.3028 53.9755C49.3322 54.6856 49.9348 55.8968 50.1106 57.6089L50.7687 64.019L47.7203 64.332ZM44.3132 64.8506C43.4362 64.9406 42.6695 64.8717 42.0131 64.6436C41.3553 64.4017 40.8329 64.0404 40.446 63.5597C40.059 63.0789 39.8327 62.5184 39.7669 61.8781C39.6983 61.2099 39.7984 60.6089 40.0671 60.0749C40.3497 59.5395 40.8317 59.0961 41.513 58.7448C42.1929 58.3796 43.1036 58.1384 44.245 58.0212L47.2308 57.7147L47.4259 59.6148L44.795 59.8849C44.0294 59.9635 43.5133 60.1431 43.2468 60.4236C42.9941 60.7028 42.887 61.0303 42.9256 61.4061C42.9685 61.8237 43.1629 62.1413 43.5088 62.359C43.8671 62.5613 44.3317 62.6332 44.9024 62.5746C45.4453 62.5189 45.9196 62.3436 46.3254 62.0487C46.7297 61.7399 47.0036 61.325 47.1471 60.8039L47.8025 62.2558C47.6402 63.0039 47.2651 63.598 46.6773 64.0382C46.0895 64.4783 45.3015 64.7491 44.3132 64.8506Z" fill="white"/>
<path d="M33.5557 65.9552C32.2751 66.0866 31.1219 65.9518 30.096 65.5508C29.0841 65.1483 28.2694 64.5427 27.6518 63.7339C27.0328 62.9113 26.6662 61.9432 26.5518 60.8296C26.4361 59.7021 26.5914 58.6804 27.0178 57.7645C27.4567 56.8332 28.1036 56.0775 28.9583 55.4974C29.8117 54.9034 30.8091 54.5478 31.9505 54.4306C33.0502 54.3177 34.0628 54.4529 34.9883 54.8361C35.9263 55.204 36.6979 55.8 37.303 56.6241C37.9066 57.4342 38.2706 58.4448 38.3949 59.6558C38.4078 59.7811 38.4158 59.928 38.4191 60.0965C38.4209 60.251 38.422 60.3986 38.4223 60.5392L29.2979 61.476L29.1028 59.576L36.5151 58.815L35.3202 59.5073C35.2602 58.9227 35.0897 58.4268 34.8088 58.0196C34.5278 57.6123 34.1664 57.3118 33.7245 57.1181C33.2812 56.9104 32.7811 56.8351 32.2243 56.8923C31.6675 56.9495 31.1863 57.1255 30.7805 57.4204C30.3872 57.6999 30.0951 58.0745 29.9042 58.5442C29.7118 59 29.6464 59.5272 29.7078 60.1258L29.7593 60.6269C29.8222 61.2393 30.0101 61.7686 30.3232 62.2148C30.6488 62.6455 31.068 62.9612 31.5809 63.1617C32.1063 63.3469 32.7031 63.4052 33.3713 63.3366C33.9698 63.2752 34.4825 63.1311 34.9094 62.9044C35.3502 62.6763 35.7399 62.362 36.0786 61.9615L38.0045 63.6627C37.5495 64.3002 36.9487 64.8191 36.202 65.2193C35.454 65.6055 34.5719 65.8508 33.5557 65.9552Z" fill="white"/>
<path d="M19.456 67.234L18.2384 55.3743L13.5613 55.8545L13.2783 53.0984L26.015 51.7907L26.2979 54.5468L21.6209 55.027L22.8385 66.8867L19.456 67.234Z" fill="white"/>
<path d="M94.6578 41.4184L93.5045 30.1851L96.6155 29.8657L96.9414 33.0394L96.4086 32.1657C96.6612 31.338 97.1357 30.6844 97.832 30.205C98.5268 29.7117 99.4032 29.4107 100.461 29.3021L100.77 32.3087C100.629 32.3091 100.503 32.315 100.392 32.3264C100.279 32.324 100.16 32.3292 100.035 32.342C99.1439 32.4335 98.4465 32.7653 97.9426 33.3375C97.4512 33.8944 97.2605 34.7087 97.3705 35.7805L97.915 41.084L94.6578 41.4184Z" fill="white"/>
<path d="M86.3378 42.4414C85.1407 42.5643 84.0501 42.4231 83.066 42.0177C82.0958 41.6109 81.295 41.0039 80.6635 40.1966C80.0445 39.3739 79.6779 38.4058 79.5635 37.2922C79.4478 36.1647 79.6101 35.1423 80.0504 34.225C80.5033 33.2923 81.164 32.5352 82.0327 31.9537C82.9139 31.3568 83.953 30.9969 85.1501 30.874C86.3333 30.7525 87.417 30.8945 88.401 31.2998C89.3837 31.6913 90.1838 32.2913 90.8014 33.1001C91.4189 33.9088 91.7863 34.8839 91.9035 36.0253C92.0178 37.1389 91.8555 38.1613 91.4166 39.0926C90.9763 40.0099 90.3155 40.767 89.4343 41.3639C88.5531 41.9607 87.521 42.3199 86.3378 42.4414ZM86.0634 39.7688C86.6062 39.713 87.0806 39.5377 87.4864 39.2429C87.8922 38.948 88.1968 38.558 88.4001 38.073C88.6021 37.574 88.6702 37.0043 88.6045 36.364C88.5373 35.7098 88.3549 35.1658 88.0571 34.7322C87.7594 34.2986 87.3819 33.9786 86.9247 33.7724C86.4675 33.5661 85.9674 33.4909 85.4245 33.5466C84.8817 33.6023 84.4073 33.7776 84.0015 34.0725C83.5958 34.3674 83.2842 34.758 83.0669 35.2446C82.8635 35.7296 82.7954 36.2993 82.8625 36.9535C82.9283 37.5938 83.1107 38.1378 83.4099 38.5853C83.7215 39.0175 84.106 39.3367 84.5632 39.543C85.0204 39.7493 85.5205 39.8245 86.0634 39.7688Z" fill="white"/>
<path d="M73.4404 43.5966L72.2614 32.1128C72.1313 30.8461 72.4035 29.7983 73.078 28.9694C73.7511 28.1267 74.7836 27.6338 76.1756 27.4909C76.6489 27.4423 77.1063 27.4446 77.5478 27.4977C78.0032 27.5494 78.3948 27.664 78.7225 27.8413L78.1087 30.2886C77.9148 30.1819 77.703 30.1052 77.4731 30.0585C77.2433 30.0118 77.003 30.0012 76.7525 30.027C76.2792 30.0756 75.9246 30.2526 75.6887 30.5582C75.4653 30.8484 75.3815 31.2649 75.4372 31.8078L75.5444 32.8518L75.7716 34.2422L76.6977 43.2622L73.4404 43.5966ZM70.8371 35.2974L70.5798 32.7918L78.368 31.9922L78.6252 34.4978L70.8371 35.2974Z" fill="white"/>
<path d="M62.667 44.8717C61.3446 45.0074 60.2802 44.7791 59.4739 44.1867C58.6661 43.5804 58.1936 42.6091 58.0564 41.2728L57.0445 31.4175L60.3018 31.0831L61.3093 40.8966C61.3579 41.3699 61.5211 41.7259 61.7988 41.9646C62.0751 42.1895 62.429 42.2797 62.8605 42.2354C63.3755 42.1825 63.7997 41.9983 64.133 41.6828L65.2458 43.8895C64.936 44.1604 64.5509 44.3828 64.0905 44.5567C63.6426 44.7152 63.1681 44.8202 62.667 44.8717ZM55.8496 36.8363L55.5924 34.3307L63.3805 33.5311L63.6378 36.0367L55.8496 36.8363Z" fill="white"/>
<path d="M50.9403 45.9068L49.3496 30.4141L52.6069 30.0796L54.1975 45.5724L50.9403 45.9068Z" fill="white"/>
<path d="M44.66 46.5515L43.5067 35.3182L46.7639 34.9838L47.9173 46.2171L44.66 46.5515ZM44.9745 33.585C44.376 33.6465 43.8709 33.5225 43.4593 33.2131C43.0478 32.9037 42.8156 32.4915 42.7627 31.9765C42.7098 31.4614 42.8534 31.0106 43.1935 30.624C43.5336 30.2374 44.003 30.0134 44.6015 29.952C45.2001 29.8905 45.7044 30.0075 46.1145 30.303C46.5232 30.5846 46.754 30.9829 46.8069 31.4979C46.8627 32.0408 46.7212 32.5125 46.3825 32.913C46.0563 33.2981 45.587 33.5222 44.9745 33.585Z" fill="white"/>
<path d="M35.0822 47.7037C34.1496 47.7994 33.2958 47.7042 32.5209 47.418C31.7599 47.1304 31.1397 46.6385 30.6603 45.9422C30.1794 45.232 29.8797 44.2992 29.7611 43.1438L29.1094 36.7964L32.3666 36.462L32.969 42.3292C33.0648 43.2618 33.3304 43.9308 33.7659 44.3362C34.2138 44.7263 34.7998 44.8842 35.5236 44.8099C36.0247 44.7584 36.4594 44.6083 36.8277 44.3595C37.1946 44.0967 37.4666 43.7312 37.6435 43.2629C37.8191 42.7807 37.8719 42.1986 37.8018 41.5165L37.2316 35.9625L40.4888 35.628L41.6422 46.8614L38.552 47.1786L38.2347 44.0884L38.8906 44.9284C38.5948 45.7465 38.0988 46.3952 37.4025 46.8747C36.7187 47.3387 35.9452 47.6151 35.0822 47.7037Z" fill="white"/>
<path d="M14.5895 49.639L13.0889 35.0232L20.2297 34.29C22.0672 34.1014 23.481 34.3079 24.4711 34.9096C25.4752 35.5098 26.0358 36.3806 26.153 37.5221C26.2316 38.2877 26.1123 38.9751 25.7951 39.5844C25.4764 40.1798 25.0057 40.6642 24.3829 41.0376C23.7601 41.411 23.0242 41.6413 22.175 41.7285L22.4839 40.8317C23.4026 40.7373 24.2326 40.8068 24.974 41.0402C25.7139 41.2596 26.3087 41.6416 26.7585 42.1863C27.2222 42.7295 27.4977 43.4256 27.5848 44.2747C27.7135 45.5275 27.3201 46.5596 26.4046 47.371C25.4878 48.1684 24.0689 48.6658 22.148 48.863L14.5895 49.639ZM17.6896 46.7465L21.6359 46.3414C22.5128 46.2513 23.1597 46.0443 23.5766 45.7201C24.0059 45.3807 24.1884 44.8977 24.1241 44.2713C24.0612 43.6589 23.7851 43.23 23.2957 42.9849C22.8189 42.7244 22.1419 42.6391 21.265 42.7292L17.0682 43.1601L16.8152 40.6963L20.4274 40.3254C21.2487 40.2411 21.8608 40.0376 22.2637 39.7149C22.6791 39.3768 22.8568 38.9155 22.7968 38.3308C22.7382 37.7601 22.4719 37.3584 21.9979 37.1258C21.5364 36.8778 20.895 36.7959 20.0737 36.8802L16.712 37.2254L17.6896 46.7465Z" fill="white"/>
<path d="M99.1546 51.2026C99.1315 50.977 99.1215 50.7523 99.1258 50.5301C99.1307 50.5296 99.1355 50.5291 99.1404 50.5286C99.2655 50.5158 99.3844 50.5101 99.4971 50.5126C99.6084 50.5012 99.7347 50.4958 99.8752 50.4954L99.6566 48.3659C99.7127 48.2538 99.7732 48.1426 99.8384 48.0331L99.8551 48.0049C100.446 47.0487 101.306 46.3371 102.304 45.8215C103.33 45.2774 104.504 44.9713 105.766 44.8417C106.563 44.7599 107.373 44.7531 108.193 44.8193L108.544 44.8529C109.392 44.9424 110.201 45.1205 110.937 45.423L111.248 45.561L111.416 45.6497C112.225 46.1306 112.597 47.1229 112.281 48.0279L111.434 50.4563C111.422 50.4895 111.406 50.5214 111.393 50.5537C111.829 50.8405 112.213 51.1968 112.537 51.6162L112.535 51.6164C113.127 52.3693 113.389 53.2696 113.479 54.1417L113.496 54.352C113.562 55.4033 113.315 56.4121 112.755 57.3191C112.75 57.3263 112.746 57.3341 112.741 57.3411C112.142 58.2848 111.271 58.9822 110.272 59.4903L110.271 59.4894C109.241 60.0191 108.047 60.3176 106.756 60.4501C105.78 60.5503 104.815 60.5489 103.863 60.4428L103.456 60.3913C103.444 60.3896 103.432 60.3873 103.419 60.3853C102.52 60.239 101.672 60.0139 100.93 59.6681L100.618 59.5116C99.7528 59.0478 99.352 58.0247 99.6724 57.0965L100.517 54.6468L100.598 54.449C100.612 54.4205 100.627 54.3929 100.642 54.3651C100.51 54.244 100.384 54.1165 100.265 53.9806L100.077 53.7506C100.067 53.7373 100.056 53.7232 100.046 53.7096C99.4946 52.9569 99.2439 52.0713 99.1546 51.2026ZM101.173 51.2319C101.254 51.7636 101.416 52.1959 101.66 52.5279C101.951 52.9056 102.312 53.1918 102.739 53.3869C103.167 53.5821 103.632 53.7175 104.132 53.7927L104.873 53.8698C105.118 53.8904 105.36 53.9054 105.6 53.9159L106.31 53.949C106.537 53.9609 106.753 53.9734 106.958 53.9875C107.369 54.0156 107.7 54.0879 107.95 54.2027L108.044 54.2432C108.249 54.3483 108.363 54.5175 108.386 54.7489L108.391 54.8663C108.383 55.1346 108.247 55.3621 107.984 55.5491C107.696 55.7615 107.176 55.9069 106.424 55.9841L106.167 56.0056C105.651 56.0401 105.122 56.0203 104.579 55.9468L104.306 55.9061C103.589 55.7687 102.956 55.5662 102.408 55.2989L101.562 57.7487C102.113 58.0438 102.84 58.2649 103.741 58.4115C104.54 58.5263 105.358 58.5537 106.193 58.4925L106.552 58.4606C107.679 58.3448 108.617 58.0936 109.366 57.7074C110.032 57.368 110.547 56.9583 110.908 56.478L111.054 56.2677C111.37 55.7554 111.52 55.201 111.505 54.6045L111.489 54.3459C111.424 53.7056 111.245 53.203 110.955 52.8389C110.663 52.4611 110.303 52.1815 109.877 52.0003C109.463 51.8037 109.005 51.6676 108.505 51.5924C108.13 51.536 107.757 51.4987 107.386 51.4814L107.016 51.4713C106.776 51.4608 106.544 51.4476 106.321 51.4318L105.677 51.3762C105.368 51.3446 105.1 51.2928 104.874 51.2211L104.662 51.1427C104.411 51.0279 104.271 50.8318 104.242 50.5536C104.21 50.2474 104.352 49.9794 104.666 49.7502C104.98 49.5211 105.499 49.3692 106.223 49.2949L106.613 49.2666C107.007 49.2499 107.412 49.2673 107.829 49.3195C108.397 49.3737 108.969 49.5336 109.545 49.7981L110.393 47.3687C109.902 47.1361 109.315 46.9725 108.633 46.8779L108.334 46.8418C107.625 46.7669 106.933 46.7548 106.258 46.8056L105.97 46.8312C104.885 46.9427 103.968 47.1983 103.221 47.5985C102.473 47.9847 101.918 48.4708 101.556 49.0564C101.208 49.6407 101.071 50.2884 101.144 50.9983L101.173 51.2319Z" fill="black"/>
<path d="M90.6208 48.5761C90.508 47.4773 91.3073 46.4951 92.4061 46.3823L95.5167 46.0629C95.9074 46.0228 96.2828 46.0989 96.6101 46.2618C97.4501 45.8407 98.3813 45.6 99.3621 45.4992C100.461 45.3864 101.443 46.1857 101.556 47.2845L101.714 48.8243C101.658 48.8999 101.605 48.9772 101.556 49.0564C101.208 49.6408 101.071 50.2884 101.144 50.9983C101.177 51.3219 101.237 51.6123 101.325 51.8692C100.997 52.2146 100.561 52.4329 100.091 52.4838L99.8811 52.4955C99.7909 52.4957 99.7322 52.499 99.7011 52.5022C99.6188 52.5106 99.5355 52.5138 99.4528 52.512C99.4317 52.5115 99.3962 52.5129 99.3445 52.5182C98.8614 52.5678 98.6626 52.7158 98.5485 52.8453L98.5478 52.8474C98.5464 52.8488 98.5131 52.8827 98.4838 53.0081C98.4512 53.1469 98.4275 53.3875 98.466 53.7629L99.0105 59.066L99.0207 59.2702C99.022 60.2839 98.2553 61.1539 97.2252 61.2599L93.9679 61.5943C92.8691 61.7071 91.8869 60.9078 91.7741 59.809L90.6208 48.5761ZM93.7637 59.6047L97.021 59.2703L96.4765 53.9671C96.3664 52.8953 96.5569 52.0807 97.0483 51.5239C97.5522 50.9518 98.2494 50.6201 99.1402 50.5287C99.2653 50.5158 99.3842 50.5102 99.4969 50.5127C99.6081 50.5012 99.7345 50.4958 99.875 50.4954L99.5663 47.4888C98.5088 47.5974 97.6324 47.8977 96.9377 48.3909C96.4912 48.6983 96.1366 49.0784 95.8726 49.529L95.721 48.0524L92.6104 48.3718L93.7637 59.6047Z" fill="black"/>
<path d="M77.1906 55.6303C77.0426 54.1887 77.2358 52.7984 77.8324 51.5169L77.8365 51.5086C78.427 50.2556 79.3078 49.2248 80.4533 48.445C81.6105 47.6422 82.9354 47.1859 84.3741 47.0382C85.7557 46.8964 87.0932 47.0595 88.3457 47.5709C88.3574 47.5755 88.3699 47.5803 88.3815 47.5849L88.3805 47.585C89.6564 48.0925 90.7169 48.9172 91.534 50.0257C92.3936 51.1793 92.8585 52.552 93.0121 54.0481C93.0322 54.2433 93.043 54.4484 93.047 54.6551C93.0471 54.66 93.0465 54.665 93.0465 54.6699C93.0484 54.8299 93.0503 54.9837 93.0507 55.1309C93.0525 55.8638 92.6564 56.5105 92.059 56.8603C92.7337 57.5472 92.8274 58.6268 92.2601 59.4215C91.6124 60.329 90.77 61.046 89.7751 61.5792C89.7662 61.584 89.757 61.5882 89.748 61.5928C88.7357 62.1155 87.6014 62.4169 86.3879 62.5415C84.9406 62.6901 83.5493 62.5633 82.2535 62.106L81.9962 62.0097L81.985 62.006C80.6611 61.4794 79.5429 60.6614 78.69 59.5445L78.682 59.5335C77.8252 58.3948 77.3388 57.0733 77.1906 55.6303ZM85.0582 51.4739C85.5331 51.4528 85.9643 51.5334 86.3523 51.7151C86.794 51.9088 87.1554 52.209 87.4363 52.6159C87.6227 52.8862 87.7596 53.1962 87.8487 53.5445L82.3192 54.1122C82.3377 53.7588 82.4086 53.435 82.5327 53.141C82.7236 52.6713 83.0155 52.2968 83.4088 52.0173C83.8146 51.7225 84.2959 51.5463 84.8526 51.4892L85.0582 51.4739ZM79.2341 55.8367C79.3893 56.7795 79.7378 57.611 80.2794 58.3309C80.897 59.1395 81.712 59.7449 82.7238 60.1474C83.6214 60.4983 84.6167 60.6457 85.7094 60.5889L86.1837 60.552C87.0727 60.4607 87.8593 60.2615 88.5432 59.9544L88.8303 59.8159C89.5769 59.4157 90.178 58.8968 90.6329 58.2594L88.707 56.5585C88.3683 56.959 87.9781 57.2732 87.5374 57.5013C87.1105 57.7279 86.5977 57.8717 85.9992 57.9331C85.3312 58.0017 84.7346 57.9436 84.2093 57.7585C83.6965 57.5581 83.2773 57.2423 82.9517 56.8117C82.7813 56.5689 82.6494 56.3005 82.5532 56.0084L91.0505 55.136L91.0473 54.6935C91.044 54.5251 91.0354 54.3776 91.0226 54.2524C90.9137 53.1926 90.6215 52.2865 90.1456 51.5338L89.9309 51.221C89.3258 50.397 88.5541 49.8004 87.616 49.4325C86.8062 49.0972 85.9296 48.9521 84.9865 48.9966L84.5783 49.0277C83.4372 49.1449 82.4398 49.4999 81.5866 50.0938L81.276 50.32C80.5735 50.866 80.03 51.5465 79.6459 52.3614C79.2196 53.2772 79.0644 54.2987 79.1801 55.426L79.2341 55.8367Z" fill="black"/>
<path d="M76.8968 54.8377C76.7943 53.8388 76.5539 53.0155 76.175 52.3682L76.0044 52.102C75.5249 51.4057 74.9119 50.9205 74.1663 50.6454C73.5247 50.3912 72.8229 50.2824 72.0606 50.3207L71.7305 50.3467C70.7701 50.4453 69.9343 50.7348 69.2241 51.2157C68.867 51.4574 68.5587 51.739 68.2986 52.0597L67.7402 46.6205L64.4829 46.955L66.0735 62.4477L69.3308 62.1133L68.7606 56.5595C68.6891 55.8635 68.742 55.2808 68.9189 54.8125C69.1098 54.3431 69.396 53.983 69.778 53.7328C70.1726 53.4673 70.6277 53.3079 71.1426 53.255C71.8664 53.1807 72.446 53.3399 72.88 53.7314L73.0396 53.8897C73.3926 54.2874 73.6097 54.8819 73.691 55.6734L74.2998 61.6031L77.5571 61.2687L76.8968 54.8377ZM69.9616 48.6749C70.464 48.5192 70.9864 48.4126 71.5262 48.3572C72.6766 48.2391 73.801 48.3592 74.8581 48.769L74.8591 48.7689C74.8629 48.7703 74.8666 48.7722 74.8704 48.7737C74.8811 48.7778 74.8923 48.7808 74.903 48.785L74.902 48.7851C76.0349 49.2133 76.9528 49.9606 77.6408 50.9543L77.6427 50.9541C78.3764 52.0014 78.7469 53.2747 78.8864 54.6334L79.5466 61.0644C79.6595 62.1632 78.8602 63.1454 77.7614 63.2582L74.5041 63.5927C73.4054 63.7054 72.4231 62.9061 72.3103 61.8074L71.7015 55.8776C71.6695 55.566 71.6145 55.3788 71.5734 55.2802C71.5665 55.2638 71.5587 55.2512 71.5536 55.241C71.5162 55.2369 71.4493 55.234 71.3469 55.2445C71.1291 55.2669 70.9934 55.3256 70.8947 55.3921C70.8877 55.3967 70.8806 55.4014 70.8736 55.406C70.8683 55.4094 70.8324 55.4279 70.7832 55.539C70.7502 55.6393 70.7019 55.8856 70.7501 56.3552L71.3204 61.909L71.3305 62.1132C71.3318 63.127 70.5652 63.997 69.5351 64.1028L66.2778 64.4373C65.179 64.5501 64.1968 63.7508 64.084 62.652L63.8447 60.3215C63.8953 60.2044 63.9423 60.0846 63.9845 59.9616L63.7997 59.8833L63.2167 54.2052L63.382 54.094C63.3154 53.98 63.2452 53.8701 63.1715 53.7641L62.4933 47.1592C62.3805 46.0604 63.1798 45.0782 64.2786 44.9654L67.5359 44.631C68.6346 44.5183 69.6169 45.3175 69.7297 46.4163L69.9616 48.6749Z" fill="black"/>
<path d="M57.8521 49.7613C59.3217 49.6104 60.7369 49.7813 62.0343 50.3558L62.0333 50.3559C63.2637 50.8879 64.2545 51.7335 64.969 52.8552L65.1094 53.0853L65.1131 53.0918C65.6393 54 65.3733 55.1609 64.5034 55.75L62.4418 57.1456L64.7583 58.1172L64.9347 58.2012C65.787 58.6599 66.1968 59.6762 65.8771 60.6097C65.4156 61.9566 64.5833 63.066 63.4245 63.8959C63.418 63.9006 63.4109 63.9052 63.4043 63.9098C62.2525 64.7138 60.9087 65.1575 59.4483 65.3075C58.0572 65.4502 56.7142 65.3213 55.4545 64.8752L55.2044 64.7821L55.1829 64.7735C53.951 64.2749 52.8998 63.518 52.0661 62.5077L51.9027 62.3026L51.889 62.2844C51.0322 61.1456 50.5448 59.8243 50.3967 58.3813C50.2477 56.93 50.453 55.5316 51.0705 54.2449L51.0745 54.2366C51.6894 52.9703 52.6094 51.9405 53.7946 51.1654C54.9925 50.367 56.3633 49.9142 57.8521 49.7613ZM55.6853 57.8383C55.6181 57.1843 55.6865 56.6147 55.8898 56.1297C56.08 55.7039 56.3477 55.3506 56.693 55.0705L56.8452 54.9557C57.2649 54.6594 57.7536 54.4825 58.3104 54.4254L58.5023 54.4115C58.9465 54.3937 59.3683 54.4752 59.7683 54.6556C60.1806 54.8348 60.5455 55.1264 60.8624 55.5308L60.9957 55.7106L63.3822 54.0941C62.8703 53.2184 62.1506 52.5816 61.2237 52.1845C60.4115 51.825 59.5018 51.6696 58.4947 51.7176L58.0564 51.7508C56.8456 51.8752 55.7925 52.2358 54.8976 52.834C54.001 53.4183 53.3262 54.1775 52.8734 55.1102C52.4332 56.0274 52.2705 57.0497 52.3862 58.177C52.5005 59.2906 52.8675 60.2591 53.4865 61.0818C54.1194 61.903 54.9351 62.5157 55.9331 62.9196C56.8049 63.2608 57.759 63.4047 58.795 63.3522L59.244 63.3179C60.427 63.1965 61.4323 62.8472 62.2592 62.2701C63.0846 61.679 63.6599 60.9093 63.9846 59.9617L61.3173 58.8425C61.0807 59.4154 60.7517 59.85 60.332 60.1463C59.9248 60.4271 59.4641 60.5947 58.9492 60.6475L58.7449 58.658C58.9329 58.6387 59.0663 58.5855 59.1804 58.5102C59.2329 58.4726 59.3474 58.3709 59.4679 58.0792C59.5743 57.8216 59.7327 57.5921 59.9295 57.4025C59.7633 57.2979 59.6101 57.1683 59.4773 57.0131L59.3527 56.8521C59.2224 56.6645 59.1141 56.572 59.0373 56.5242L58.971 56.4898L58.9463 56.4786C58.8212 56.4222 58.6905 56.3969 58.5146 56.4149C58.2681 56.4402 58.1129 56.5089 57.9985 56.5896C57.8891 56.6669 57.8016 56.7654 57.7274 56.9228C57.6838 57.0372 57.6358 57.2537 57.6748 57.634C57.7138 58.0139 57.8049 58.2164 57.8709 58.3197C57.9483 58.4227 58.0255 58.4935 58.1109 58.5444L58.2041 58.5918C58.3325 58.6476 58.4984 58.6833 58.7449 58.658L58.9492 60.6475L58.7427 60.6629C58.333 60.6812 57.9473 60.626 57.5859 60.4969L57.4068 60.426C56.9358 60.2212 56.5443 59.9027 56.2328 59.4706C55.935 59.0369 55.7524 58.4925 55.6853 57.8383Z" fill="black"/>
<path d="M50.111 57.6094C49.9352 55.8973 49.3321 54.6855 48.3027 53.9753C47.3377 53.3096 46.0726 53.0338 44.5078 53.1466L44.1906 53.1743C43.2998 53.2657 42.4349 53.4738 41.5963 53.799L41.2882 53.9248C40.5837 54.228 39.9825 54.5961 39.4853 55.0288L40.8886 57.1848C41.2594 56.8232 41.7213 56.5224 42.2734 56.2828C42.838 56.028 43.4198 55.8696 44.0182 55.8082L44.3368 55.7843C45.0582 55.7533 45.6189 55.8902 46.0193 56.1937C46.4908 56.5392 46.7629 57.0594 46.8344 57.7554L44.2455 58.0212C43.1042 58.1383 42.1929 58.3793 41.513 58.7445C40.8318 59.0957 40.3498 59.5395 40.0671 60.0749C39.7984 60.6089 39.6988 61.2104 39.7674 61.8786L39.7995 62.1148C39.8921 62.6573 40.1072 63.1389 40.4455 63.5593C40.8324 64.04 41.355 64.4023 42.0128 64.6442C42.587 64.8437 43.2462 64.9211 43.9893 64.8771L44.3135 64.8507C45.3016 64.7492 46.0897 64.4787 46.6774 64.0386C47.076 63.7402 47.3737 63.3693 47.5767 62.9293L47.7207 64.332L50.7691 64.0191L50.111 57.6094ZM47.1474 60.8038C47.0039 61.3249 46.7293 61.7398 46.3249 62.0486C45.9192 62.3434 45.4452 62.5188 44.9024 62.5746L44.693 62.5902C44.2171 62.6128 43.8224 62.5362 43.5089 62.3593C43.163 62.1416 42.9689 61.8236 42.9261 61.406C42.8875 61.0304 42.9939 60.7029 43.2464 60.4239C43.513 60.1433 44.0295 59.9635 44.7951 59.8849L47.0295 59.6555L47.1474 60.8038ZM52.7586 63.8148L52.7688 64.0189C52.7701 65.0327 52.0034 65.9027 50.9734 66.0086L47.9249 66.3216C47.5883 66.3562 47.2626 66.3041 46.9695 66.1851C46.2148 66.5482 45.3807 66.7516 44.5177 66.8403C43.4256 66.9524 42.3527 66.8787 41.3565 66.5326L41.3228 66.5204C40.4907 66.2143 39.7434 65.7497 39.1383 65.1023L38.8878 64.8139C38.248 64.019 37.8813 63.0898 37.7778 62.0829C37.7267 61.5843 37.7367 61.0875 37.8172 60.6014L38.4224 60.5392C38.422 60.3987 38.421 60.2512 38.4192 60.0968C38.4159 59.9283 38.4073 59.7809 38.3945 59.6556C38.3752 59.4678 38.3474 59.2852 38.3166 59.107C38.5257 58.7189 38.7843 58.3754 39.0791 58.0716L37.8096 56.1197C37.2656 55.2838 37.4207 54.1749 38.1729 53.5202C38.9458 52.8477 39.8592 52.3274 40.8728 51.9344C41.8773 51.5448 42.9169 51.2945 43.9863 51.1847C45.9939 50.9786 47.8919 51.2624 49.4383 52.3292C51.112 53.4838 51.8886 55.3402 52.1006 57.4051L52.7586 63.8148Z" fill="black"/>
<path d="M24.5627 61.0336C24.4147 59.592 24.6078 58.2017 25.2045 56.9202L25.2086 56.9119C25.8007 55.6555 26.6855 54.6229 27.8356 53.8424C28.9904 53.0437 30.3115 52.5889 31.7461 52.4415C33.1277 52.2997 34.4653 52.4629 35.7178 52.9742C35.7243 52.9768 35.7317 52.9794 35.7382 52.9819C35.7433 52.984 35.7485 52.9861 35.7536 52.9882L35.7526 52.9883C37.0285 53.4959 38.089 54.3206 38.9061 55.429C39.7657 56.5826 40.2305 57.9553 40.3842 59.4514C40.3891 59.4994 40.3915 59.5485 40.3953 59.5975C40.2666 59.7479 40.1564 59.9062 40.0673 60.0749C39.7986 60.6089 39.6989 61.2105 39.7675 61.8786C39.7719 61.9207 39.7786 61.9622 39.7843 62.0036C39.6774 62.1031 39.5583 62.1892 39.4311 62.2637C40.1058 62.9505 40.1994 64.0301 39.6322 64.8249C38.9844 65.7323 38.142 66.4493 37.1472 66.9825C37.1383 66.9873 37.1291 66.9915 37.1201 66.9961C36.1078 67.5188 34.9735 67.8203 33.76 67.9448C32.3127 68.0934 30.9214 67.9667 29.6255 67.5094L29.3683 67.4131L29.3571 67.4093C28.0331 66.8827 26.915 66.0647 26.0621 64.9478L26.0541 64.9368C25.1972 63.7981 24.7108 62.4766 24.5627 61.0336ZM32.4303 56.8773C32.9052 56.8562 33.3364 56.9367 33.7244 57.1184C34.1662 57.3122 34.5284 57.612 34.8094 58.0192C34.9958 58.2894 35.1326 58.5993 35.2218 58.9477L29.6913 59.5155C29.7097 59.1621 29.7807 58.8384 29.9047 58.5443C30.0956 58.0746 30.3876 57.7001 30.7809 57.4206C31.1866 57.1258 31.6679 56.9496 32.2247 56.8925L32.4303 56.8773ZM26.6062 61.24C26.7613 62.1828 27.1098 63.0143 27.6515 63.7342C28.269 64.5428 29.0841 65.1482 30.0959 65.5507C30.9935 65.9016 31.9888 66.049 33.0814 65.9922L33.5557 65.9553C34.4448 65.864 35.2314 65.6648 35.9152 65.3577L36.2024 65.2192C36.9489 64.819 37.55 64.3002 38.005 63.6627L36.079 61.9619C35.7404 62.3623 35.3502 62.6765 34.9094 62.9046C34.4826 63.1312 33.9698 63.275 33.3713 63.3364C32.7033 63.405 32.1067 63.347 31.5814 63.1619C31.0686 62.9614 30.6493 62.6456 30.3238 62.215C30.1534 61.9722 30.0215 61.7039 29.9252 61.4117L38.4225 60.5393L38.4193 60.0969C38.4161 59.9284 38.4075 59.781 38.3947 59.6557C38.2858 58.5961 37.9944 57.6897 37.5187 56.937L37.303 56.6244C36.6979 55.8003 35.9261 55.2037 34.9881 54.8358C34.1783 54.5006 33.3017 54.3554 32.3585 54.4L31.9504 54.4311C30.8092 54.5483 29.8119 54.9033 28.9587 55.4971L28.6481 55.7233C27.9456 56.2694 27.4021 56.9498 27.018 57.7648C26.5917 58.6805 26.4365 59.702 26.5522 60.8293L26.6062 61.24Z" fill="black"/>
<path d="M13.2778 53.0988L13.5608 55.8548L18.2373 55.3746L19.455 67.2342L22.8376 66.8869L21.62 55.0273L26.2975 54.5471L26.0145 51.7911L13.2778 53.0988ZM28.2871 54.3428L28.2972 54.5469C28.2984 55.5607 27.5319 56.4308 26.5018 56.5366L23.8138 56.8126L24.8271 66.6826C24.9399 67.7814 24.1406 68.7636 23.0418 68.8764L19.6592 69.2237C18.5606 69.3362 17.5782 68.5371 17.4654 67.4384L16.4521 57.5684L13.765 57.8443C12.6663 57.9571 11.6841 57.1577 11.5712 56.059L11.2883 53.303C11.1754 52.2042 11.9747 51.222 13.0735 51.1092L25.8103 49.8015C26.909 49.6888 27.8913 50.488 28.0041 51.5868L28.2871 54.3428Z" fill="black"/>
<path d="M91.5144 30.3898C91.4016 29.2911 92.201 28.3089 93.2997 28.196L96.4112 27.8765C96.8019 27.8365 97.1773 27.9124 97.5047 28.0754C98.3447 27.6544 99.2758 27.4136 100.257 27.3129C101.355 27.2001 102.338 27.9993 102.45 29.0981L102.759 32.1048L102.77 32.3147C102.768 32.8044 102.587 33.2792 102.256 33.6467C101.925 34.0141 101.472 34.2446 100.985 34.2974L100.775 34.3092C100.685 34.3095 100.627 34.3126 100.596 34.3158C100.513 34.3243 100.43 34.3274 100.347 34.3256C100.326 34.3252 100.291 34.3265 100.239 34.3318C99.7561 34.3814 99.5571 34.5295 99.4431 34.659L99.4423 34.661C99.4415 34.6619 99.4079 34.6953 99.3783 34.8217C99.3458 34.9606 99.321 35.2012 99.3596 35.5766L99.9041 40.8798C100.017 41.9786 99.2176 42.9608 98.1188 43.0736L94.8615 43.408C93.7628 43.5207 92.7805 42.7215 92.6677 41.6227L91.5144 30.3898ZM94.6572 41.4185L97.9145 41.084L97.37 35.7809C97.26 34.7092 97.4506 33.8945 97.9418 33.3376C98.4458 32.7654 99.1439 32.4337 100.035 32.3423C100.16 32.3294 100.279 32.3238 100.391 32.3263C100.503 32.3148 100.629 32.3094 100.77 32.3091L100.461 29.3024C99.403 29.411 98.5261 29.7113 97.8312 30.2046C97.3848 30.512 97.0311 30.8921 96.7671 31.3427L96.6155 29.8661L93.5039 30.1855L94.6572 41.4185Z" fill="black"/>
<path d="M91.9034 36.0251C91.7861 34.8838 91.4185 33.9086 90.801 33.0999C90.2607 32.3925 89.5808 31.845 88.7612 31.4569L88.4014 31.2994C87.5403 30.9447 86.6025 30.7924 85.5889 30.8411L85.1506 30.8744C83.9535 30.9973 82.9137 31.3565 82.0326 31.9533C81.1639 32.5349 80.503 33.2926 80.0501 34.2253C79.6099 35.1425 79.4482 36.1647 79.5639 37.292L79.6179 37.7027C79.7731 38.6454 80.1215 39.4769 80.6632 40.1968C81.2947 41.0041 82.0958 41.6108 83.0659 42.0176C83.927 42.3723 84.8698 42.5251 85.894 42.4753L86.3382 42.4415C87.3731 42.3352 88.2925 42.0472 89.0964 41.5771L89.4347 41.3637C90.2056 40.8415 90.8073 40.1964 91.2407 39.4289L91.4163 39.0928C91.8552 38.1616 92.0177 37.1387 91.9034 36.0251ZM86.6148 36.5681C86.5837 36.2656 86.5206 36.0754 86.4628 35.9583L86.4081 35.8648C86.3322 35.7543 86.2589 35.6846 86.1814 35.6368L86.1026 35.5958C85.9949 35.5472 85.8528 35.5135 85.6292 35.5364C85.4054 35.5594 85.2724 35.6213 85.1768 35.6908C85.0767 35.7636 84.9851 35.8643 84.9041 36.0369C84.8604 36.1511 84.8125 36.368 84.8516 36.7491C84.8876 37.1003 84.974 37.3127 85.0544 37.4439C85.1368 37.552 85.2162 37.6235 85.2969 37.6733L85.3852 37.7202C85.4929 37.7688 85.6357 37.8024 85.8595 37.7795L86.0638 39.769L85.8621 39.7838C85.4628 39.8011 85.0875 39.7449 84.7364 39.6147L84.5632 39.5432C84.1059 39.3369 83.7212 39.0179 83.4095 38.5857C83.1104 38.1381 82.9278 37.5937 82.862 36.9534C82.7949 36.2994 82.8632 35.7298 83.0665 35.2448C83.2567 34.8192 83.5188 34.4662 83.8532 34.1873L84.0015 34.0729C84.4073 33.778 84.8821 33.6026 85.425 33.5468L85.6257 33.5321C86.0915 33.5119 86.5244 33.5923 86.9246 33.7728C87.3818 33.979 87.7592 34.2989 88.0569 34.7325C88.3546 35.166 88.5371 35.7097 88.6043 36.3638C88.67 37.0041 88.6019 37.5743 88.3999 38.0733C88.1965 38.5583 87.892 38.9482 87.4863 39.243L87.3312 39.3483C86.9612 39.5801 86.5386 39.7202 86.0638 39.769L85.8595 37.7795C86.083 37.7565 86.2154 37.6946 86.311 37.6251C86.4039 37.5576 86.4815 37.4679 86.5496 37.3101C86.6053 37.1664 86.6526 36.9365 86.6148 36.5681ZM93.8929 35.8208C94.0411 37.2638 93.8333 38.6566 93.2257 39.9457C93.2238 39.9499 93.2212 39.954 93.2192 39.9581C92.6185 41.2094 91.7161 42.2338 90.556 43.0196C89.3705 43.8226 88.0148 44.2798 86.5424 44.431C85.1527 44.5737 83.8104 44.4336 82.5541 43.9648L82.3045 43.8668L82.2922 43.8621C81.0954 43.3602 80.0712 42.6135 79.2494 41.629L79.0884 41.4286L79.0658 41.3995C78.2089 40.2607 77.7225 38.9393 77.5744 37.4962C77.4715 36.4938 77.5367 35.5165 77.7908 34.5839L78.6252 34.4982L78.4654 32.941C79.062 31.8742 79.8837 30.9872 80.9113 30.2975L81.1358 30.1507C82.2705 29.4366 83.5567 29.0275 84.9463 28.8848C86.4187 28.7337 87.8389 28.9049 89.1628 29.4503L89.1619 29.4504C90.4576 29.9706 91.5488 30.7843 92.3904 31.8863C93.2594 33.0243 93.7429 34.3606 93.8929 35.8208Z" fill="black"/>
<path d="M75.9713 25.5015C76.577 25.4394 77.1788 25.4416 77.7728 25.5119L77.7736 25.5109C78.3452 25.5758 78.9141 25.7169 79.4483 25.9682L79.675 26.0824L79.8204 26.1695C80.5266 26.6326 80.8709 27.4972 80.6624 28.3282L80.0489 30.7758C80.0413 30.8058 80.0295 30.8345 80.0206 30.8641C80.2027 31.1303 80.3228 31.4451 80.358 31.7885L80.5258 33.4225C80.349 33.6743 80.1887 33.9408 80.0506 34.2253C79.7467 34.8585 79.5785 35.5421 79.5395 36.2755C79.3241 36.3863 79.0855 36.4615 78.83 36.4877L78.0217 36.5707L78.6878 43.0581L78.6979 43.2622C78.6992 44.276 77.9326 45.146 76.9025 45.2519L73.6452 45.5863C72.5464 45.6991 71.5642 44.8999 71.4514 43.8011L70.7833 37.2943C69.7929 37.2687 68.952 36.5138 68.848 35.5021L68.5908 32.9967L68.5795 32.7917C68.5785 31.8149 69.2913 30.9739 70.2648 30.8192C70.3786 29.6888 70.7783 28.6284 71.5269 27.7082C72.6261 26.3408 74.2174 25.6817 75.9713 25.5015ZM76.1755 27.4911C74.7837 27.634 73.7509 28.1268 73.0779 28.9695C72.4035 29.7983 72.1319 30.8466 72.2619 32.1132L72.3134 32.6145L70.5803 32.7924L70.8375 35.2978L72.5706 35.1199L73.4409 43.5968L76.6982 43.2624L75.8279 34.7854L78.6257 34.4982L78.3685 31.9928L75.4871 32.2886L75.4378 31.8078C75.3821 31.265 75.4661 30.8489 75.6894 30.5587C75.9253 30.2532 76.2798 30.076 76.753 30.0274L76.9382 30.0143C77.1222 30.0085 77.3005 30.0235 77.4729 30.0585C77.7027 30.1053 77.9153 30.182 78.1091 30.2887L78.7227 27.8412C78.477 27.7082 78.1953 27.6103 77.8778 27.548L77.5477 27.4984C77.1063 27.4453 76.6487 27.4425 76.1755 27.4911Z" fill="black"/>
<path d="M63.381 33.5316L60.5832 33.8188L60.3023 31.0832L57.045 31.4176L57.3259 34.1533L55.5928 34.3312L55.8501 36.8366L57.5831 36.6586L58.0569 41.2731L58.0871 41.5193C58.2551 42.7292 58.7179 43.618 59.4752 44.1864C60.2311 44.7418 61.2136 44.9776 62.4231 44.8929L62.6683 44.8717C63.044 44.8331 63.4047 44.7641 63.7505 44.6653L64.0918 44.5567C64.552 44.3828 64.9368 44.1602 65.2465 43.8894L64.1335 41.6829C63.8002 41.9983 63.3759 42.1828 62.861 42.2357L62.703 42.246C62.3425 42.2553 62.0412 42.1614 61.7995 41.9647C61.5564 41.7558 61.4009 41.4568 61.3334 41.0682L61.3099 40.8969L60.8404 36.3242L63.6382 36.037L63.381 33.5316ZM62.3685 31.625L63.1767 31.542C64.2755 31.4292 65.2577 32.2285 65.3705 33.3273L65.6278 35.8327L65.6389 36.0367C65.6401 37.0505 64.8727 37.9207 63.8425 38.0265L63.0342 38.1095L63.2189 39.9077C63.6023 39.71 64.0431 39.6367 64.478 39.7126C65.0229 39.8078 65.5005 40.1234 65.8019 40.579L65.9199 40.7819L67.0321 42.9894L67.1029 43.1441C67.4176 43.9265 67.2073 44.8313 66.5634 45.3946C66.0423 45.8502 65.4396 46.1857 64.7983 46.4279C64.7853 46.4328 64.7717 46.4371 64.7585 46.4418C64.1524 46.6563 63.522 46.7945 62.8726 46.8612C61.3252 47.0201 59.8148 46.801 58.5424 45.9727L58.2908 45.7982C58.2853 45.7942 58.2793 45.7903 58.2739 45.7862C56.8866 44.7448 56.2419 43.1765 56.0674 41.4773L55.7959 38.833C54.8057 38.8072 53.9645 38.0523 53.8605 37.0408L53.6033 34.5355L53.593 34.3304C53.5921 33.4025 54.235 32.5965 55.1339 32.3855L55.0555 31.6219C54.9427 30.5232 55.7422 29.5411 56.8408 29.4281L60.0981 29.0937C61.1969 28.9809 62.1791 29.7802 62.2919 30.8789L62.3685 31.625Z" fill="black"/>
<path d="M49.3501 30.4142L50.9407 45.907L54.198 45.5725L52.6073 30.0798L49.3501 30.4142ZM56.1875 45.3683L56.1977 45.5724C56.199 46.5861 55.4323 47.4561 54.4023 47.5621L51.145 47.8965C50.0462 48.0093 49.064 47.21 48.9512 46.1112L47.3605 30.6184C47.2477 29.5197 48.047 28.5375 49.1458 28.4246L52.4031 28.0902C53.5017 27.9776 54.4841 28.7768 54.5969 29.8755L56.1875 45.3683Z" fill="black"/>
<path d="M46.8067 31.4979C46.7537 30.9831 46.5231 30.5851 46.1146 30.3036C45.7045 30.0081 45.1997 29.891 44.6011 29.9524C44.0028 30.0139 43.5336 30.2377 43.1936 30.6241C42.8535 31.0107 42.7103 31.4619 42.7631 31.9769C42.8161 32.4918 43.048 32.9037 43.4594 33.213C43.8709 33.5224 44.3758 33.647 44.9742 33.5857C45.5866 33.5228 46.0564 33.2981 46.3825 32.9129C46.7211 32.5124 46.8624 32.0407 46.8067 31.4979ZM43.5068 35.3188L44.6601 46.5518L47.9174 46.2173L46.7641 34.9844L43.5068 35.3188ZM48.7962 31.2937C48.8832 32.141 48.7138 32.9614 48.2817 33.6829C48.5382 33.9817 48.7103 34.3587 48.7536 34.7801L49.9069 46.0131L49.9171 46.2172C49.9184 47.231 49.1518 48.101 48.1216 48.2069L44.8643 48.5413C43.7656 48.6541 42.7833 47.8548 42.6705 46.756L41.5172 35.5231L41.507 35.318C41.5066 34.9736 41.595 34.6461 41.7521 34.3592C41.2397 33.8116 40.9144 33.1356 40.7988 32.3788L40.7736 32.1812L40.758 31.9815C40.7054 30.9902 41.0255 30.0598 41.6915 29.3028L41.8312 29.153C42.5412 28.4256 43.4504 28.0601 44.3969 27.9629C45.3849 27.8614 46.4034 28.046 47.2841 28.6805L47.2832 28.6816C48.1762 29.3114 48.6878 30.2383 48.7962 31.2937Z" fill="black"/>
<path d="M32.9694 42.3292L32.3671 36.4626L29.1098 36.797L29.7615 43.1445L29.8147 43.567C29.9581 44.5291 30.2397 45.3209 30.6604 45.9423C31.1398 46.6386 31.7601 47.1306 32.521 47.4182C33.1991 47.6686 33.9376 47.7727 34.7364 47.7307L35.0822 47.704C35.9452 47.6154 36.7194 47.3388 37.4032 46.8747C37.8104 46.5942 38.1467 46.2541 38.4169 45.8577L38.5525 47.1789L41.6427 46.8616L40.4895 35.6286L37.2322 35.9631L37.8024 41.5169L37.8223 41.7681C37.8567 42.3428 37.7974 42.8411 37.6439 43.2629C37.467 43.7312 37.1948 44.0971 36.8279 44.3598C36.4597 44.6085 36.0251 44.7583 35.5242 44.8097L35.32 42.8202C35.5028 42.8014 35.6095 42.7591 35.6751 42.7219C35.694 42.7052 35.7279 42.6664 35.7671 42.5662C35.8096 42.4416 35.8602 42.1831 35.8128 41.7211L35.2426 36.1673C35.1298 35.0685 35.9291 34.0863 37.0279 33.9735L40.2852 33.6391C41.3838 33.5265 42.3662 34.3257 42.479 35.4244L43.6323 46.6573L43.6425 46.8614C43.6438 47.8752 42.8771 48.7452 41.847 48.8511L38.7568 49.1684C38.3894 49.2061 38.0354 49.1402 37.7222 48.9968C36.9646 49.373 36.1482 49.6051 35.2864 49.6936C34.2407 49.8009 33.2178 49.7249 32.2429 49.4327L31.8282 49.2947L31.8139 49.2893C30.6563 48.8517 29.7136 48.0944 29.0127 47.0765L29.0045 47.0636C28.2847 46.0004 27.9129 44.7212 27.772 43.3488L27.1203 37.0013C27.0075 35.9025 27.8068 34.9203 28.9056 34.8075L32.1628 34.473C33.2616 34.3603 34.2439 35.1596 34.3567 36.2583L34.959 42.1249L34.9884 42.3536C35.0214 42.5603 35.0632 42.7021 35.0992 42.7928C35.1039 42.8045 35.11 42.8142 35.1142 42.8237C35.1556 42.8277 35.2225 42.8302 35.32 42.8202L35.5242 44.8097L35.259 44.8272C34.6558 44.8414 34.1585 44.6776 33.7665 44.3364C33.3854 43.9816 33.1338 43.425 33.0129 42.6664L32.9694 42.3292Z" fill="black"/>
<path d="M11.0998 35.2278C10.987 34.129 11.7863 33.1468 12.885 33.034L20.0262 32.3008L20.2305 34.2904L13.0893 35.0236L14.5899 49.6391L22.1488 48.863L22.503 48.8227C24.1288 48.6173 25.3699 48.1815 26.2269 47.5166L26.4054 47.3707C27.2634 46.61 27.663 45.6554 27.6035 44.5068L27.5856 44.275C27.4984 43.4259 27.2223 42.7296 26.7586 42.1864C26.3088 41.6418 25.7139 41.2598 24.974 41.0404C24.8362 40.9971 24.6951 40.9608 24.5512 40.9287C25.0906 40.5713 25.5063 40.1247 25.7954 39.5846C26.1127 38.9753 26.2316 38.2873 26.153 37.5217C26.0357 36.3805 25.4751 35.5095 24.4712 34.9093C23.5429 34.3455 22.2425 34.129 20.5699 34.2594L20.2305 34.2904L20.0262 32.3008C22.0521 32.0929 23.9725 32.2727 25.4965 33.1931L25.4975 33.193C25.4995 33.1942 25.5018 33.1951 25.5037 33.1963C25.5059 33.1976 25.5079 33.1992 25.5101 33.2005L25.5091 33.2006C27.0353 34.1174 27.9598 35.5386 28.1426 37.3174C28.2474 38.3389 28.1118 39.3444 27.6817 40.2774C27.8943 40.4623 28.0938 40.6656 28.2794 40.8876C29.0547 41.7957 29.4547 42.8981 29.5751 44.0707L29.601 44.4185C29.686 46.1488 29.057 47.693 27.7312 48.8681C27.7267 48.8721 27.7223 48.8763 27.7178 48.8803C26.3555 50.0652 24.4611 50.6361 22.3531 50.8526L14.7942 51.6286C13.6954 51.7415 12.7132 50.9422 12.6004 49.8434L11.0998 35.2278ZM21.2657 42.7288C22.1422 42.6388 22.8189 42.7244 23.2956 42.9847C23.7849 43.2298 24.0617 43.6587 24.1247 44.271L24.1374 44.4994C24.1397 45.0162 23.9522 45.4232 23.5765 45.7203L23.4098 45.8366C22.9948 46.0945 22.4037 46.2628 21.6366 46.3416L17.6896 46.7468L17.3187 43.134L21.2657 42.7288ZM20.0743 36.8804C20.8953 36.7961 21.5366 36.8778 21.9981 37.1256C22.472 37.3583 22.7385 37.7601 22.7972 38.3306L22.8083 38.5444C22.8088 39.029 22.6273 39.4188 22.2639 39.7146C21.9112 39.997 21.3986 40.1889 20.7256 40.2887L20.428 40.3252L17.0657 40.6704L16.7121 37.2256L20.0743 36.8804Z" fill="black"/>
</svg>
