<svg width="1520" height="371" viewBox="0 0 1520 371" fill="none" xmlns="http://www.w3.org/2000/svg">
<path fill-rule="evenodd" clip-rule="evenodd" d="M491.344 126V252H566.844H642.344V311.5V371H646.388C650.404 371 650.83 370.6 708.638 312.465L766.844 253.931L872.094 253.965L977.344 254V127V0H893.188H809.032L809.688 15.159C810.049 23.496 810.344 65.346 810.344 108.159V186H827.844H845.344L845.371 167.25L845.398 148.5L851.621 141.699L857.844 134.897L873.69 160.449L889.537 186H909.547C925.185 186 929.453 185.726 929.077 184.745C928.812 184.055 917.957 167.08 904.955 147.023L881.316 110.556L893.581 98.028C900.327 91.138 911.014 80.212 917.329 73.75L928.811 62H907.652H886.493L867.571 82.751C857.164 94.164 847.905 104.119 846.996 104.874C845.464 106.145 845.344 103.107 845.344 63.122V20H897.344H949.344V122.5V225H852.089H754.835L713.844 266C691.299 288.55 672.514 307 672.099 307C671.684 307 671.344 288.103 671.344 265.006V223.013L596.094 222.756L520.844 222.5L520.589 122.25L520.334 22H641.339H762.344V104V186H779.844H797.344V93V0H644.344H491.344V126ZM12.489 13.07C8.06602 14.841 4.30002 18.166 2.32102 22.044C-0.785978 28.136 -0.767978 188.072 2.34102 194.494C7.40202 204.949 7.67403 204.989 74.344 204.989C135.542 204.989 136.145 204.94 141.915 199.498L145.546 196.073L151.366 199.011C178.024 212.468 218.451 208.408 239.329 190.176L243.814 186.26L249.333 191.988C265.105 208.36 295.347 211.534 320.127 199.419C331.948 193.639 332.769 191.792 333.161 170.092C333.672 141.787 329.698 135.062 313.159 136.245L306.344 136.733V127.447V118.161L310.361 119.739C315.202 121.64 329.798 120.264 338.967 117.041C344.063 115.25 344.489 115.234 344.995 116.807C347.074 123.27 348.906 127.168 352.018 131.747L355.584 136.995L347.43 149.609C333.192 171.636 334.163 178.639 353.138 190.804C389.15 213.893 437.823 211.536 458.388 185.708C474.73 165.183 474.358 135.306 457.531 116.895L452.6 111.5L459.964 98C472.501 75.018 469.726 66.756 445.834 55.923C426.006 46.932 398.773 44.404 382.702 50.061L375.559 52.575L375.152 39.038C374.411 14.414 371.124 12 338.336 12C313.184 12 306.964 14.168 303.835 24.029C303.217 25.976 303.025 25.927 299.654 22.968C294.303 18.269 292.764 18 271.247 18C241.483 18 236.662 21.012 235.563 40.296C235.111 48.221 234.829 49.245 232.894 49.981C231.705 50.433 229.264 52.038 227.47 53.548L224.208 56.292L220.526 54.27C171.267 27.219 111.319 64.711 108.632 124.25L108.057 137H89.7H71.344L71.338 83.25C71.332 19.588 71.241 19.038 59.885 13.88C55.362 11.825 17.224 11.173 12.489 13.07ZM1059.75 19.02C1009.38 24.333 984.407 81.551 1017.35 116.173C1020.62 119.606 1022.91 122.659 1022.44 122.957C1019.99 124.512 1000.85 148.067 999.253 151.5C994.484 161.728 998.992 169.282 1016.8 180.909C1045.27 199.496 1086.51 202.989 1113.08 189.065L1120.53 185.162L1124.69 189.483C1130.5 195.53 1133.9 196.222 1155.81 195.827C1183.19 195.334 1185.56 193.144 1186.17 167.75L1186.53 153H1194.75C1208.25 153 1221.55 149.865 1233.59 143.846L1239.34 140.971V162.035C1239.34 193.983 1241.25 195.984 1271.65 195.994C1302.86 196.005 1304.33 194.433 1304.34 161.25L1304.34 139H1316.34H1328.34L1328.37 160.25C1328.4 194.758 1330.29 196.614 1364.24 195.599C1374.47 195.293 1383.97 195.068 1385.34 195.099C1420.28 195.898 1503.25 195.834 1506.32 195.005C1517.37 192.03 1519.34 187.469 1519.34 164.888C1519.34 143.193 1518.22 139.879 1509.54 135.894L1504.77 133.705L1507.06 129.183C1510.32 122.742 1510.49 93.116 1507.3 86.101C1506.21 83.682 1505.43 81.657 1505.58 81.601C1516.76 77.379 1518.34 73.591 1518.34 51.112C1518.34 28.654 1516.43 24.153 1505.55 20.97C1502.62 20.113 1421.99 20.067 1385.34 20.901C1383.97 20.932 1374.47 20.707 1364.24 20.401C1330.39 19.389 1328.4 21.316 1328.37 55.25L1328.34 76H1316.4H1304.45L1304.15 53.25C1303.72 20.869 1303.55 20.687 1273.95 20.17C1250.93 19.768 1243.09 22.267 1240.2 30.919C1239.97 31.606 1237.15 30.695 1232.82 28.535C1218.3 21.29 1214.23 20.726 1172.98 20.243C1131.22 19.754 1130.15 19.903 1124.01 27.083L1120.65 31.009L1113.14 27.541C1103.09 22.896 1092.8 20.186 1080.79 19.018C1069.83 17.953 1069.86 17.953 1059.75 19.02ZM574.343 46.25L574.344 62H566.844H559.344V77V92H566.797H574.251L574.547 128.354L574.832 163.236C574.84 164.215 574.952 165.189 575.165 166.144C575.477 167.541 575.967 168.892 576.623 170.165L577.307 171.492C585.448 187.494 611.065 193.056 632.057 183.514L637.27 181.145L637.557 171.322L637.844 161.5L639.981 166.122C651.111 190.192 690.844 195.805 712.38 176.349L716.344 172.767V179.384V186H733.344H750.344V145.447C750.344 94.148 748.934 86.748 736.863 74.677C721.545 59.359 685.068 56.286 654.578 67.744C650.582 69.246 647.479 70.93 647.684 71.487C647.889 72.044 649.77 78.012 651.864 84.75C653.958 91.487 656.16 96.994 656.758 96.987C657.355 96.98 661.444 95.821 665.844 94.412C687.579 87.45 708.754 90.952 714.309 102.427C716.955 107.893 717.13 115.377 714.594 114.595C699.757 110.022 679.548 109.077 667.415 112.391C648.364 117.595 638.761 128.258 636.822 146.359C635.988 154.144 634.701 155.22 624.623 156.557C610.2 158.471 609.344 156.453 609.344 120.55V92H623.844H638.344V77V62H623.844H609.344V46.545V31.089L591.843 30.795L574.342 30.5L574.343 46.25ZM52.344 93V155H90.844H129.344V170.5V186H73.844H18.344V108.5V31H35.344H52.344V93ZM356.332 50.75C356.31 86.84 347.167 100.506 322.519 101.292L315.993 101.5L314.787 96.5C314.124 93.75 313.528 92.513 313.463 93.75C313.346 95.971 313.162 96 299.3 96H285.256L285.55 124.588L285.844 153.176L288.65 155.588C292.027 158.492 300.524 158.906 307.344 156.5C309.682 155.675 311.764 155 311.97 155C312.176 155 312.344 161.02 312.344 168.377V181.754L307.352 183.901C289.881 191.417 267.104 188.419 258.783 177.508C252.983 169.904 252.344 165.084 252.344 128.911V96H245.344H238.344V81.5V67H245.344H252.344V52V37H268.844H285.344V52V67H299.344H313.344V77.5C313.344 89.253 313.028 88.877 320.94 86.527C328.836 84.183 334.344 77.418 334.344 70.066V66H327.844H321.344V48.5V31H338.844H356.344L356.332 50.75ZM1091.91 38.009C1100.7 40.249 1111.95 45.254 1118.82 49.982L1123.3 53.067L1117.28 61.763C1113.96 66.545 1110.23 71.777 1108.99 73.388L1106.73 76.318L1099.56 72.062C1076.24 58.205 1051.34 60.431 1051.34 76.374C1051.34 83.921 1056.3 86.877 1080.02 93.493C1119.64 104.54 1132.79 119.759 1126.34 147.114C1118 182.493 1064.71 192.281 1024.85 165.755C1013.51 158.212 1013.55 159.019 1024 146.796L1032.96 136.31L1038.37 140.197C1061.87 157.106 1093.83 157.684 1096.04 141.24C1097.27 132.063 1090.91 127.799 1065.84 121.008C1031.18 111.617 1020.34 101.47 1020.34 78.424C1020.34 46.041 1052.4 27.939 1091.91 38.009ZM1213.84 39.366C1263.42 53.367 1263.04 119.113 1213.3 133.669C1209.58 134.756 1201.62 135.463 1188.34 135.883L1168.84 136.5L1168.57 157.75L1168.3 179H1152.82H1137.34V107.913V36.825L1172.59 37.248C1201.77 37.599 1208.88 37.964 1213.84 39.366ZM1287.34 65V93H1316.33H1345.31L1345.58 65.25L1345.84 37.5L1361.6 37.225L1377.36 36.949L1377.1 107.725L1376.84 178.5H1361.34H1345.84L1345.58 150.25L1345.31 122H1316.33H1287.34V150.5V179H1271.84H1256.34V108V37H1271.84H1287.34V65ZM1501.34 51V65H1463.34H1425.34V79.5V94H1458.84H1492.34V107.5V121H1458.84H1425.34V136V151H1463.84H1502.34V165.009V179.017L1448.09 178.759C1397.16 178.516 1393.85 178.393 1393.93 176.75C1393.97 175.787 1394.09 143.95 1394.18 106L1394.34 37H1447.84H1501.34V51ZM194.991 65.933C222.288 71.11 238.408 92.517 240.035 125.75L240.635 138H199.364H158.094L158.738 141.25C162.837 161.942 191.927 168.379 211.453 152.914L215.389 149.796L219.617 153.342C221.942 155.292 226.264 159.06 229.221 161.716L234.599 166.544L231.855 169.804C206.51 199.926 148.817 192.439 131.435 156.773C108.442 109.594 145.55 56.557 194.991 65.933ZM420.938 68.024C432.065 70.87 445.682 77.601 445.067 79.951C444.289 82.927 433.222 102.137 432.507 101.753C408.656 88.939 389.344 87.885 389.344 99.398C389.344 104.981 392.254 106.886 410.868 113.489C443.539 125.079 453.587 138.454 446.9 161.454C438.19 191.417 386.669 197.768 355.892 172.673L352.94 170.266L358.322 161.719C367.044 147.871 366.733 148.174 370.045 150.279C392.68 164.665 418.344 166.376 418.344 153.5C418.344 147.858 413.901 145.149 395.844 139.782C366.927 131.187 355.682 118.105 359.309 97.278C363.774 71.637 388.736 59.788 420.938 68.024ZM1168.84 66.16C1168.54 66.927 1168.42 76.767 1168.57 88.027L1168.84 108.5L1184.84 108.493C1200.39 108.487 1201.01 108.406 1206.65 105.645C1222.83 97.718 1222.65 74.984 1206.34 67.639C1200.48 64.996 1169.75 63.784 1168.84 66.16ZM1198.34 82.889C1206.22 85.061 1200.39 92 1190.69 92H1186.34V87V82L1191.09 82.1C1193.71 82.155 1196.97 82.51 1198.34 82.889ZM1120.34 89.559C1120.34 90.416 1119.89 90.835 1119.33 90.49C1118.77 90.144 1118.57 89.443 1118.89 88.931C1119.74 87.544 1120.34 87.802 1120.34 89.559ZM174.481 93.369C167.077 96.049 160.218 104.716 157.958 114.25L157.306 117H182.72H208.133L207.398 113.75C203.634 97.105 189.072 88.089 174.481 93.369ZM711.1 133.85L716.844 135.615L716.758 141.63C716.471 161.587 684.464 172.616 673.11 156.671C661.326 140.122 685.078 125.853 711.1 133.85Z" fill="white"/>
</svg>
