<svg width="1520" height="453" viewBox="0 0 1520 453" fill="none" xmlns="http://www.w3.org/2000/svg">
<rect width="1520" height="256" fill="#F5D010"/>
<path d="M569.796 383.408V247.688C569.796 216.16 591.166 188.643 621.712 180.836L842.064 124.524C910.781 106.964 958.098 192.058 906.921 241.164L706.788 433.196C693.939 445.524 676.822 452.408 659.015 452.408H638.796C600.689 452.408 569.796 421.516 569.796 383.408Z" fill="#F5D010"/>
<path d="M1063.2 183.3C1042 183.3 1019.6 175.8 1006.1 164.2C1003.6 162 1002.3 160.5 1002.3 158.7C1002.3 157.2 1002.6 156.5 1012.7 145.1C1015.8 141.6 1019.2 137.7 1019.9 136.7L1021.7 133.9L1024.2 136.1C1033.2 144 1048.6 152 1062.9 152C1077.2 152 1070.6 151.3 1073.8 150.1C1078 148.4 1080.6 145.4 1080.8 141.9C1081 138.5 1079 135.3 1075.2 133.1C1068.6 129.4 1060.3 127.3 1051.6 125C1032.7 120.2 1011.3 114.8 1007.8 89.6998C1005.8 75.5998 1008.8 63.8998 1016.6 54.8998C1025.7 44.3998 1041.4 38.2998 1059.7 38.2998C1078 38.2998 1076.6 39.5998 1084.4 41.9998C1093.6 44.7998 1102.3 49.4998 1110.4 55.7998L1112.5 57.3998L1094.6 83.5998L1092.3 82.3998C1091.1 81.6998 1089.9 81.0998 1088.7 80.3998C1080.7 75.8998 1073.1 71.6998 1064.1 70.2998C1062.7 70.0998 1060.5 69.7998 1057.8 69.7998C1052.7 69.7998 1044.1 70.6998 1042.8 76.5998C1040.6 87.0998 1052.4 90.6998 1067 93.9998C1069.6 94.5998 1072.1 95.1998 1074.2 95.7998C1084.5 98.7998 1097.3 103.4 1105.8 111.9C1114.5 120.5 1117.5 131.8 1115.2 146.4C1111.5 169.3 1092.1 183 1063.4 183L1063.2 183.3ZM1366.3 181.5V40.1998H1475.4V71.7998H1401.8V94.4998H1466.7V126.1H1401.8V149.8H1476.4V181.4H1366.3V181.5ZM1323.7 181.5C1322.1 181.5 1320.1 179.6 1320.1 177.9V126.6H1269.5V181.4H1234V40.1998H1269.5V94.0998H1320.1V40.1998H1355.6V181.5H1323.7ZM1120 181.5V40.1998H1183.9C1214.7 42.4998 1234.3 62.5998 1233.9 91.4998C1233.5 123.7 1206.5 139.4 1180 140.7H1176.4C1173.8 140.7 1171 140.6 1168.3 140.5C1165.7 140.4 1162.9 140.3 1160.4 140.3C1157.9 140.3 1156.8 140.3 1155.3 140.5L1154.8 181.5H1120Z" fill="#F5D010"/>
<path d="M1093.4 79.9999L1108.3 58.0999C1100.8 52.1999 1092.3 47.4999 1083.2 44.6999C1049.4 34.2999 1004.1 45.8999 1010.2 89.2999C1015 123.2 1054.2 118.1 1076.2 130.6C1086.5 136.5 1085.2 148.4 1074.5 152.7C1057.9 159.3 1034.7 149.4 1022 138.2C1020.2 140.9 1004.9 157.3 1004.9 158.6C1004.9 159.9 1007.1 161.3 1007.8 161.9C1035.4 185.5 1104.6 192.2 1112.1 146C1116.9 116.5 1097.4 105.8 1073.1 98.4999C1061.5 95.0999 1036.2 92.9999 1039.8 75.9999C1041.8 66.2999 1056.8 66.3999 1064.3 67.3999C1075.2 68.9999 1084.1 74.6999 1093.4 79.7999V79.9999ZM1122.8 178.7H1151.9L1152.4 138.3C1152.8 137.8 1153.3 137.9 1153.8 137.8C1161.7 136.9 1171.6 138.3 1179.8 137.8C1206.9 136.4 1230.6 120.6 1231 91.3999C1231.4 62.3999 1211.4 45.0999 1183.6 42.9999H1122.7V178.7H1122.8ZM1266.7 42.9999H1236.9V178.7H1266.7V123.9H1323V178L1323.7 178.7H1352.8V42.9999H1323V96.8999H1266.7V42.9999ZM1472.6 42.9999H1369.2V178.7H1473.6V152.7H1399.8L1399.1 152V123.4H1464V97.3999H1399.1V68.9999H1472.7V42.9999H1472.6Z" fill="white"/>
<path d="M207.4 191.3C203.9 191.3 200.3 191 196.7 190.5C179.5 188 165.6 179.6 156.4 166.4C156 165.8 155.6 165.3 155.3 164.7V188.2H48.5999C48.0999 188.5 47.3999 188.7 46.5999 188.7C45.7999 188.7 45.5999 188.7 45.1999 188.4L43.3999 187.7V33.9004H81.2999V153.7H149.9C146.5 144.7 145 134.6 145.8 124.3C147.8 96.5004 167 66.6004 204.2 66.6004C241.4 66.6004 212.5 67.0004 216.7 67.7004C234.4 70.7004 246.8 81.9004 254.2 96.2004V68.9004H268.2V39.6004H305.6V68.9004H332.1V88.8004C337.6 87.9004 342.1 85.5004 344.9 82.1004C346.9 79.6004 347.9 76.6004 347.9 73.2004H334.7V33.9004H374V72.6004C374 80.5004 368.3 93.2004 362.5 98.3004C354.2 105.6 343.5 107.2 333.2 107.8H332.4C330.3 107.3 329.7 105.4 329 101.7H305.8V151.2C306 151.8 306.5 153.3 306.6 153.7C307.5 155.8 310 156.8 313.8 156.8C317.6 156.8 324.1 155.2 327.7 153.6L331.7 151.8V183.4L330.1 184.2C321.5 188.6 312.6 190.8 303.7 190.8C294.8 190.8 295.6 190.3 291.7 189.4C277.1 186 269.5 175.8 268.3 158V101.7H256.8C261.7 113.7 263.4 127.3 261.9 140.1L261.6 142.6H183.6C186.5 153.6 195.4 160 208 160C211.1 160 214.2 159.6 217.3 158.8C223.5 157.3 228.2 153.7 233.8 149.1L235.7 147.6L257.6 167.1L255.9 169.2C244.1 183.5 227 191.3 207.6 191.3H207.4ZM417.2 190.8C398.5 190.8 378.5 183.7 366.2 172.8L364.4 171.2L380.2 145.8L382.6 147.4C395.7 156.3 407 160.6 417 160.6C427 160.6 419.3 160.6 420.4 160.4C423.7 160.1 427.2 158.1 428.2 155.9C428.6 155.1 428.9 153.8 427.5 151.9C425.2 148.7 414 145.5 407.3 143.6C404.4 142.8 401.8 142 400 141.4C376 132.7 366.5 117.6 371.7 96.6004C376.3 78.0004 391.9 67.4004 414.6 67.4004C437.3 67.4004 438.8 70.3004 449.2 75.3004C459.5 80.3004 459.5 82.4004 459.4 83.7004V84.4004L446.6 106.9L445.1 107.3H444.6C443.5 107.3 442.6 107 435.4 103.3C433.5 102.3 431.2 101.2 430.6 101C428.3 100.1 420.2 97.2004 413.3 97.2004C406.4 97.2004 406.4 98.3004 405.2 100.4C404.3 102 404.5 103 404.7 103.6C406 107.2 413.6 109.9 417.6 111.4C418.2 111.6 418.7 111.8 419.2 112C421.6 112.9 424 113.7 426.4 114.5C436.8 118 447.6 121.7 455.2 130.8C466.3 144.1 464.1 167.3 450.6 179.5C442.5 186.8 430.9 190.7 417 190.7L417.2 190.8Z" fill="#F5D010"/>
<path d="M78.4002 36.7998H46.2002V185.9C46.9002 186.2 47.6002 185.4 47.9002 185.4H152.5V156.5H78.4002V36.7998ZM370.9 36.7998H337.2V70.4998H350.2C352.2 83.8998 341.2 91.2998 329 92.0998V71.8998H302.5V42.5998H270.7V71.1998L270 71.8998H256.8V98.7998H270.8V157.7C271.8 172.1 277.2 183 292.1 186.5C304.6 189.4 317.2 187.3 328.6 181.5V156C322.2 158.9 307.4 162.7 303.7 154.7C300 146.7 302.6 151.6 302.6 151.5V98.7998H329.1V92.9998C329.2 92.8998 329.7 93.1998 329.8 93.4998C330.7 95.1998 331.5 104.7 332.7 105C342.5 104.4 352.7 102.8 360.3 96.1998C365.6 91.5998 370.9 79.4998 370.9 72.5998V36.7998ZM258.8 139.7C262.1 110 248.4 75.9998 216.1 70.5998C136.9 57.1998 122.7 176.8 197.1 187.7C218.5 190.8 239.6 184.2 253.5 167.4L235.4 151.3C230 155.7 224.7 159.8 217.8 161.5C200.2 165.9 182.7 158.9 179.9 139.7H258.8ZM381 149.8L368.1 170.7C387.3 187.8 428.5 195.9 448.9 177.5C460.7 166.8 463.7 145.3 453.2 132.8C444.4 122.2 430.6 119.4 418.3 114.8C406 110.2 397.8 108.2 402.7 99.1998C407.4 90.6998 424.6 95.7998 431.6 98.4998C438.6 101.2 443.9 104.8 444.6 104.6L456.5 83.6998C456.5 82.2998 449.4 78.6998 447.8 77.8998C423.4 65.9998 382.3 64.7998 374.3 97.2998C368.9 119.4 381.6 131.8 400.8 138.8C407.5 141.2 425.8 144.9 429.7 150.3C434.4 157 427 162.6 420.6 163.3C406.4 164.7 392.3 157.5 380.9 149.8H381Z" fill="white"/>
<path d="M176.3 122.8L176.6 119.7C177.5 111.3 180.8 104.2 186.2 99.2998C191.1 94.7998 197.5 92.2998 204.2 92.2998C216.4 92.2998 229.5 100.8 231.3 119.7L231.6 122.8H176.3Z" fill="black"/>
<path d="M228.5 120H179.4C182.8 87.2003 225.2 86.6003 228.5 120Z" fill="black"/>
<path d="M1164.7 81.5996H1190.4V101.8H1164.7V81.5996Z" fill="white"/>
<path d="M1169.4 182.4C1168.5 188.8 1161.4 194.8 1155.2 195.6C1149 196.4 1127.4 196.5 1120.3 195.6C1113.2 194.7 1109.5 190.3 1107.2 185.1C1096.8 191.8 1084.6 196.3 1072.1 197.1C1048.2 198.7 1023.9 193.4 1004.1 179.9C995.3 173.9 985 166.4 988.7 154.2C990.2 149.4 1006.2 131.1 1010.5 126.5C1014.8 121.9 1012.1 125.6 1012.6 124.7C1012.7 124.2 1006 118.3 1004.9 117C990.9 100.4 989.7 73.9996 999.8 55.1996C1015 27.0996 1049.7 20.4996 1079 26.4996C1088.9 28.4996 1098.1 32.2996 1107 36.8996C1109.3 30.9996 1114.8 27.1996 1121 26.3996C1141.7 27.1996 1163.4 25.1996 1184 26.3996C1204.6 27.5996 1210.3 30.8996 1221.3 37.8996C1222.6 32.1996 1228.6 27.4996 1234.3 26.5996C1240 25.6996 1261.4 25.6996 1268.7 26.3996C1274.5 26.9996 1283.9 33.3996 1283.9 39.5996V80.1996H1306.5V39.9996C1306.5 33.4996 1315.6 26.8996 1321.7 26.2996C1327.8 25.6996 1347 25.4996 1354.9 26.2996C1362.8 27.0996 1359.8 28.0996 1361.2 28.1996C1362.6 28.2996 1366.5 25.9996 1368.8 26.2996H1473.7C1481.6 26.5996 1488.8 33.0996 1489.7 40.9996C1490.6 48.8996 1490.4 63.6996 1489.7 70.7996C1489.1 77.5996 1483.6 84.4996 1476.7 85.4996C1478.1 88.7996 1480.2 90.5996 1480.5 94.3996C1481.3 102.2 1481.2 118.3 1480.5 126.2C1480.1 130.3 1478.2 133 1475.7 136C1482.3 136.7 1487.8 141.3 1489.9 147.5C1489.7 158.5 1491 170.6 1490.1 181.5C1489.5 189.6 1481.9 195.5 1474 195.7H1368.1C1366.1 196.1 1362.9 193.8 1361.4 193.8C1359.9 193.8 1359 194.8 1357.9 195.1C1351 196.6 1329.1 196.4 1321.5 195.7C1313.9 195 1311.9 192.5 1309.3 188.7C1308.7 187.8 1306.3 182.9 1306.3 182V140.9H1284.2C1284 141.8 1283.8 142.6 1283.7 143.5C1282.7 155.7 1285.1 170.1 1283.7 182C1282.3 193.9 1277.3 193.7 1271.8 195.1C1266.3 196.5 1240.5 196.4 1234.5 195.6C1228.5 194.8 1220.2 188.1 1220.2 182V143.3C1217 144.7 1214 146.6 1210.8 148C1197.9 153.7 1183.3 155.3 1169.3 154.8V182.5L1169.4 182.4ZM1093.8 80.0996L1108.7 58.1996C1101.2 52.2996 1092.7 47.5996 1083.6 44.7996C1049.8 34.3996 1004.5 45.9996 1010.6 89.3996C1015.4 123.3 1054.6 118.2 1076.6 130.7C1086.9 136.6 1085.6 148.5 1074.9 152.8C1058.3 159.4 1035.1 149.5 1022.4 138.3C1020.6 141 1005.3 157.4 1005.3 158.7C1005.3 160 1007.5 161.4 1008.2 162C1035.8 185.6 1105 192.3 1112.5 146.1C1117.3 116.6 1097.8 105.9 1073.5 98.5996C1061.9 95.1996 1036.6 93.0996 1040.2 76.0996C1042.2 66.3996 1057.2 66.4996 1064.7 67.4996C1075.6 69.0996 1084.5 74.7996 1093.8 79.8996V80.0996ZM1123.2 178.8H1152.3L1152.8 138.4C1153.2 137.9 1153.7 138 1154.2 137.9C1162.1 137 1172 138.4 1180.2 137.9C1207.3 136.5 1231 120.7 1231.4 91.4996C1231.8 62.4996 1211.8 45.1996 1184 43.0996H1123.1V178.8H1123.2ZM1267 43.0996H1237.2V178.8H1267V124H1323.3V178.1L1324 178.8H1353.1V43.0996H1323.3V96.9996H1267V43.0996ZM1472.9 43.0996H1369.5V178.8H1473.9V152.8H1400.1L1399.4 152.1V123.5H1464.3V97.4996H1399.4V69.0996H1473V43.0996H1472.9Z" fill="black"/>
<path d="M1153 111.9L1152.5 70.8C1152.5 70.4 1153 69.6 1153.2 69.6H1181.1C1186.8 69.6 1195 74.2 1198.1 79.1C1207.1 93.3 1196.3 112 1179.7 112H1153V111.9ZM1169.4 95.1H1178.8C1179.3 95.1 1182.7 94 1183.1 93.7C1184.5 92.6 1184.8 89.2 1183.6 87.9C1182.4 86.6 1179.7 86.4 1179.3 86.4H1169.4V95.1ZM795.6 7V186H762.2L761.5 185.3V28.2H529.6V221.1H674.9V302.4L754.5 223H941.9V26.7H842.3V109C844 107.7 845.5 106 846.9 104.5C858.1 92.4 868.8 79.7 880.3 67.9C891.8 56.1 880.7 66.7 880.8 66.7H921.7L877 114L923.1 186H884.4C874.2 169.9 863.8 153.9 854.3 137.4C853.5 137.2 853.3 137.7 852.8 138.1C849.1 141.6 845.8 145.9 842.2 149.7V186H808L807 7H968.6V251.9H766.3L654.2 364H646.3V250H501V7H795.6Z" fill="black"/>
<path d="M614.7 36.4002V66.7002H642.6V96.0002H614.7V149.6C614.7 150.4 616.5 154.2 617.1 154.9C621.9 160.2 635.3 156.8 641.1 154.1C640.3 150 641.1 145.3 641.9 141.2C649.1 109.6 692.9 108.8 717.6 117.5C719.1 85.5002 678.6 93.7002 659.4 100.7L651.2 75.4002L651.7 74.5002C662.1 70.0002 673.3 66.7002 684.7 65.6002C718 62.4002 747.7 71.8002 750.4 109.6V185.9H717.7V173.4C710.4 180.8 702.2 185.5 691.8 187.2C673.3 190.2 652.6 185 644 167L642.2 161.9V181.1C630.6 187.7 616.3 189.4 603.2 186.6C587.8 183.3 581.8 171 580.6 156.3V95.9002H566.6V66.6002H580.6V36.3002H614.8L614.7 36.4002ZM692.1 133.7C683.5 134.6 674.8 138.7 673.9 148.2C672.1 167.8 700.1 167.6 711.2 158.5C717.8 153.1 719.1 146 718 137.8C710.2 134.2 700.7 132.8 692.2 133.6L692.1 133.7ZM97.0998 138.4H132.7C131.6 124.3 133.4 110.2 138.7 97.0002C146.2 78.6002 161.6 62.9002 180.3 55.9002C199 48.9002 226.5 49.8002 244.5 61.4002C247.1 57.9002 250.5 55.3002 254.8 54.2002C255.2 46.8002 253.6 39.4002 257.7 32.8002C259.9 29.2002 264.7 25.7002 268.8 24.7002C274.7 23.3002 302.8 23.3002 308.9 24.7002C312.9 25.6002 317.5 28.2002 319.6 31.8002C322.3 25.4002 326.6 20.5002 333.7 18.9002C346.5 19.7002 361.5 17.4002 374 18.8002C379.8 19.4002 389.1 26.5002 389.1 32.5002V57.8002C392.9 56.6002 396.6 55.1002 400.5 54.1002C415.5 50.4002 432.2 51.9002 446.8 56.6002C454.7 59.2002 470.9 66.3002 475.6 73.0002C485.3 86.9002 469.1 102.1 464.2 114.7C472.8 122.3 480.1 133.3 481 145.1C485.4 203.6 425.6 218.1 380.8 198.2C374 195.2 359.9 187.3 356.1 181.1C349.6 170.7 354.3 164.1 359.8 155.2C365.3 146.3 366.9 144.6 370.4 139.3C368 135.4 364.7 131.5 362.8 127.3C360.9 123.1 360.2 118.5 359.6 118.5C355 120.3 350.4 121.9 345.5 122.7C341.3 123.4 334.5 124.1 330.4 123.7C327.9 123.4 325.4 122.6 323.3 121.4V139.7C332.4 134.5 344.4 139.1 348.3 148.6C352.2 158.1 350.2 174.8 349.8 181.3C349.1 191.9 344 196.4 334.9 200.5C312 210.8 278 209.5 263.5 186.3C239.4 210.8 197.6 213.4 168.7 196C164.8 201.4 160.1 204.1 153.3 204.6H46.2998C37.7998 204.3 30.5998 198.6 28.7998 190.4V28.9002C28.7998 23.0002 33.6998 18.2002 39.5998 18.2002H86.4998C92.3998 18.2002 97.1998 23.0002 97.1998 28.9002V138.3L97.0998 138.4ZM78.7998 36.9002H46.5998V186C47.2998 186.3 47.9998 185.5 48.2998 185.5H152.9V156.6H78.7998V36.9002ZM371.3 36.9002H337.6V70.6002H350.6C352.6 84.0002 341.6 91.4002 329.4 92.2002V72.0002H302.9V42.7002H271.1V71.3002L270.4 72.0002H257.2V98.9002H271.2V157.8C272.2 172.2 277.6 183.1 292.5 186.6C305 189.5 317.6 187.4 329 181.6V156.1C322.6 159 307.8 162.8 304.1 154.8C300.4 146.8 303 151.7 303 151.6V98.9002H329.5V93.1002C329.6 93.0002 330.1 93.3002 330.2 93.6002C331.1 95.3002 331.9 104.8 333.1 105.1C342.9 104.5 353.1 102.9 360.7 96.3002C366 91.7002 371.3 79.6002 371.3 72.7002V36.9002ZM259.2 139.8C262.5 110.1 248.8 76.1002 216.5 70.7002C137.3 57.3002 123.1 176.9 197.5 187.8C218.9 190.9 240 184.3 253.9 167.5L235.8 151.4C230.4 155.8 225.1 159.9 218.2 161.6C200.6 166 183.1 159 180.3 139.8H259.2ZM381.4 149.9L368.5 170.8C387.7 187.9 428.9 196 449.3 177.6C461.1 166.9 464.1 145.4 453.6 132.9C444.8 122.3 431 119.5 418.7 114.9C406.4 110.3 398.2 108.3 403.1 99.3002C407.8 90.8002 425 95.9002 432 98.6002C439 101.3 444.3 104.9 445 104.7L456.9 83.8002C456.9 82.4002 449.8 78.8002 448.2 78.0002C423.8 66.1002 382.7 64.9002 374.7 97.4002C369.3 119.5 382 131.9 401.2 138.9C407.9 141.3 426.2 145 430.1 150.4C434.8 157.1 427.4 162.7 421 163.4C406.8 164.8 392.7 157.6 381.3 149.9H381.4Z" fill="black"/>
<path d="M228.9 120.1H179.8C183.2 87.2999 225.6 86.6999 228.9 120.1Z" fill="black"/>
</svg>
