<svg width="84" height="77" viewBox="0 0 84 77" fill="none" xmlns="http://www.w3.org/2000/svg">
<g clip-path="url(#clip0_207_1525)">
<path d="M59.9201 22.3C58.8001 17.08 57.2701 6.20998 57.2701 3.38998C57.2301 1.35998 56.5901 0.399976 54.9801 0.0899758C54.0201 -0.110024 53.5801 0.0499758 52.8901 0.769976C51.9701 1.76998 51.8501 2.91998 52.4901 4.58998C52.7301 5.18998 53.3301 8.12998 53.8501 11.12C54.3701 14.11 55.0501 17.37 55.4201 18.37C56.4201 21.28 57.6301 27.21 59.2701 37.36C60.8001 46.48 61.6401 49.62 62.8001 50.02C63.2401 50.14 63.3201 49.5 63.1601 46.87C62.8801 41.53 61.0301 27.64 59.9101 22.3H59.9201Z" fill="#F5D012"/>
<path d="M83.3601 28.19C82.8401 27.23 80.8701 27.11 80.1501 27.99C79.9101 28.31 79.2701 30.3 78.7501 32.45C77.5501 37.55 76.3801 41.41 75.3801 43.44C74.4201 45.47 73.3301 48.1 73.3301 48.42C73.3301 48.54 73.8901 48.14 74.5301 47.5C75.6501 46.42 77.7401 43.2 78.7801 40.93C79.0201 40.37 79.5801 39.14 80.0601 38.14C80.9001 36.27 82.2301 33.08 83.1901 30.46C83.5901 29.35 83.6301 28.75 83.3501 28.19H83.3601Z" fill="#F5D012"/>
<path d="M36.21 30.58C35.61 29.58 34.89 28.67 34.64 28.51C33.84 27.99 32.51 28.19 31.87 28.91C30.55 30.34 30.99 31.54 33.72 33.81C35.08 35 38.66 38.27 41.63 41.14C51.5 50.62 53.63 52.49 54.79 52.49C55.83 52.49 54.39 50.7 48.29 44.53C42.03 38.16 38.18 33.7 36.21 30.59V30.58Z" fill="#F5D012"/>
<path d="M36.0005 57.06C25.1605 54.35 17.9405 52.2 9.35049 49.18C5.86049 47.91 2.57049 46.91 2.05049 46.91C1.49049 46.91 0.850487 47.31 0.440488 47.91C-0.359513 49.1 -0.0395125 50.7 1.08049 51.29C1.52049 51.53 2.93049 51.89 4.17049 52.13C5.45049 52.37 9.31049 53.44 12.7205 54.48C16.1705 55.56 20.5905 56.79 22.5505 57.27C24.5605 57.71 26.5205 58.19 26.9605 58.31C27.4005 58.43 30.3705 58.95 33.5805 59.5C36.7905 60.02 39.7205 60.65 40.1205 60.85C41.1605 61.45 46.0205 61.85 46.0205 61.37C46.0205 60.33 41.8905 58.54 35.9905 57.07L36.0005 57.06Z" fill="#F5D012"/>
<path d="M41.1796 71.15C39.6896 70.35 35.5596 70.19 32.5896 70.83C31.7096 70.99 28.9396 71.15 26.4896 71.15C22.5196 71.19 21.8696 71.27 21.1496 71.99C20.7096 72.43 20.3496 73.22 20.3496 73.78C20.3496 74.97 21.6296 76.37 22.7596 76.37C23.2396 76.37 24.1196 76.09 24.7696 75.77C26.4196 74.93 30.1896 74.1 36.0096 73.38C38.7396 73.02 41.3496 72.54 41.7896 72.3C42.5096 71.9 42.4696 71.82 41.1896 71.15H41.1796Z" fill="#F5D012"/>
</g>
<defs>
<clipPath id="clip0_207_1525">
<rect width="83.54" height="76.37" fill="white"/>
</clipPath>
</defs>
</svg>
