<svg width="135" height="98" viewBox="0 0 135 98" fill="none" xmlns="http://www.w3.org/2000/svg">
<g clip-path="url(#clip0_207_1437)">
<path d="M87.7601 75.95C92.9601 72.51 99.9301 68.32 106.66 64.26C113.71 60.01 120.99 55.62 126.22 52.13C129.06 50.23 131.09 48.73 132.43 47.54C133.8 46.33 135.11 44.92 134.38 43.66C134.22 43.38 133.89 43.01 133.26 42.87C132.54 42.71 131.37 42.8 128.66 44.09C132.93 41.12 133.85 39.79 134.09 38.91C134.25 38.33 134.1 37.89 133.95 37.63C133.78 37.34 133.44 36.95 132.78 36.8C132.52 36.74 132.22 36.71 131.82 36.75C133.06 35.63 133.47 34.92 133.63 34.36C133.8 33.75 133.65 33.3 133.49 33.02C133.32 32.73 132.99 32.36 132.34 32.21C131.59 32.04 130.39 32.13 127.66 33.36C129.31 31.95 130.29 30.78 130.56 29.84C130.75 29.14 130.58 28.62 130.4 28.31C130.22 28 129.86 27.6 129.16 27.44C128.05 27.19 126.09 27.46 120.5 30.51C125.76 26.83 126.91 25.21 127.21 24.12C127.39 23.46 127.23 22.98 127.06 22.69C126.88 22.38 126.52 21.97 125.81 21.81C125.77 21.81 125.72 21.8 125.68 21.79C125.63 21.63 125.57 21.48 125.51 21.37C125.3 21.02 124.89 20.55 124.09 20.37C123.77 20.3 123.4 20.28 122.97 20.31C123.32 19.83 123.56 19.39 123.67 18.98C123.9 18.2 123.7 17.63 123.5 17.28C123.31 16.96 122.94 16.54 122.2 16.37C120.7 16.03 117.72 16.57 107.6 22.52C112.43 19.15 115.23 16.57 115.74 14.73C115.96 13.94 115.76 13.37 115.56 13.02C115.37 12.69 114.98 12.25 114.22 12.08C113.37 11.89 112.06 11.97 109.32 13.12C110.28 12.15 110.87 11.31 111.07 10.59C111.28 9.85997 111.1 9.31997 110.91 8.98997C110.72 8.65997 110.33 8.22997 109.58 8.05997C108.39 7.78997 106.31 8.05997 100.6 11.1C102.31 9.62997 103.32 8.40997 103.59 7.42997C103.79 6.70997 103.61 6.16997 103.43 5.84997C103.24 5.52997 102.86 5.09997 102.13 4.93997C100.45 4.54997 96.9401 5.26997 83.6001 13.52C74.7101 19.01 63.4901 26.59 52.6401 33.92C41.8001 41.24 30.6001 48.81 21.9501 54.13C17.3201 56.98 13.7601 58.98 11.0801 60.25C7.62007 61.89 6.54007 61.84 6.27007 61.78C6.31007 61.54 6.65007 60.6 9.39007 58.32C11.5301 56.53 14.6801 54.31 18.9901 51.52C27.0601 46.3 38.1101 39.86 48.7901 33.62C59.9701 27.1 71.5301 20.35 79.8401 14.93C91.9401 7.01997 93.7101 4.16997 92.6401 2.30997C92.4501 1.97997 92.0601 1.54997 91.3101 1.37997C90.2001 1.12997 88.3801 1.58997 85.8801 2.68997C85.8401 2.58997 85.8001 2.49997 85.7601 2.42997C85.5701 2.10997 85.2001 1.68997 84.4701 1.51997C82.9301 1.16997 79.8301 1.76997 68.4601 8.85997C60.9101 13.57 51.3901 20.09 42.1801 26.39C38.2901 29.06 34.3401 31.76 30.5201 34.34C25.0101 37.29 19.7901 40.14 15.3801 42.7C9.00007 46.4 5.47007 48.81 3.51007 50.49C2.60007 50.77 2.15007 50.77 1.96007 50.74C2.10007 50.43 2.64007 49.63 4.65007 48.01C6.41007 46.59 8.94007 44.83 12.3701 42.62C18.7901 38.49 27.1601 33.6 36.0301 28.41C45.6601 22.78 55.6201 16.95 62.8401 12.21C66.7701 9.62997 69.5701 7.57997 71.4201 5.93997C73.1101 4.43997 74.9201 2.51997 74.0101 0.93997C73.8301 0.62997 73.4801 0.23997 72.8001 0.0799699C72.0201 -0.10003 70.8001 -3.016e-05 68.0501 1.25997C68.0101 1.10997 67.9501 0.97997 67.8901 0.87997C67.7201 0.58997 67.3901 0.20997 66.7401 0.0699699C65.4801 -0.22003 62.9601 0.25997 53.8201 5.92997C53.0601 6.40997 52.2701 6.89997 51.4601 7.41997C52.0601 6.95997 52.5701 6.53997 53.0101 6.15997C54.2401 5.06997 55.5601 3.65997 54.8201 2.37997C54.6701 2.11997 54.3701 1.77997 53.8001 1.64997C51.1801 1.04997 43.4401 6.05997 27.6201 16.83C22.2101 20.51 17.1001 24 12.9201 26.61C9.33007 28.85 7.35007 29.86 6.27007 30.3C6.88007 29.72 7.94007 28.82 9.75007 27.47C12.2901 25.58 15.6401 23.28 18.8801 21.06C22.3901 18.65 26.0201 16.17 28.6201 14.19C32.3901 11.32 33.3901 10.04 32.7401 8.91997C32.5801 8.64997 32.3301 8.45997 32.0201 8.38997C31.0401 8.15997 29.4201 9.13997 23.5101 13.13C21.0701 14.78 17.4501 17.23 16.3901 17.58C16.1401 17.5 15.8601 17.53 15.6201 17.66C15.1601 17.93 15.0001 18.52 15.2701 18.98C15.4301 19.25 15.6801 19.44 16.0001 19.51C16.9901 19.74 18.6301 18.75 24.6101 14.72C24.7901 14.6 24.9701 14.48 25.1601 14.35C22.9501 15.94 20.3501 17.72 17.8101 19.46C5.67007 27.79 2.70007 30.09 3.71007 31.83C3.91007 32.17 4.24007 32.41 4.66007 32.51C5.44007 32.69 6.75007 32.3 8.72007 31.29C2.06007 35.64 0.120071 37.79 1.05007 39.39C1.17007 39.59 1.37007 39.84 1.72007 40.01C0.910071 40.82 0.600071 41.39 0.470071 41.85C0.290071 42.48 0.450071 42.94 0.610071 43.23C0.790071 43.54 1.14007 43.93 1.82007 44.09C3.17007 44.39 5.86007 43.89 15.5501 37.83C21.9601 33.82 30.0501 28.26 37.8601 22.88C41.4601 20.41 45.1101 17.89 48.6201 15.51C51.5701 13.91 54.3401 12.36 56.7901 10.93C62.8101 7.41997 65.6001 5.33997 66.9301 3.96997C67.5701 3.62997 68.1701 3.32997 68.7201 3.07997C71.1501 1.93997 72.0601 1.89997 72.3401 1.93997C72.2701 2.20997 71.8701 3.08997 69.5401 5.03997C67.6301 6.63997 64.8501 8.62997 61.0301 11.11C53.9201 15.73 44.3401 21.33 35.0801 26.75C25.7401 32.21 16.9201 37.37 10.3701 41.63C6.82007 43.94 4.29007 45.76 2.62007 47.21C0.97007 48.63 -0.599929 50.28 0.230071 51.7C0.410071 52.02 0.790071 52.43 1.50007 52.59C1.51007 52.59 1.52007 52.59 1.54007 52.59C1.33007 52.92 1.21007 53.2 1.13007 53.46C0.940071 54.13 1.10007 54.63 1.28007 54.94C1.46007 55.25 1.82007 55.66 2.53007 55.82C4.05007 56.17 7.19007 55.53 18.9501 48.21C26.7901 43.33 36.7701 36.53 46.4201 29.95C50.5201 27.16 54.6701 24.33 58.7101 21.61C63.6101 18.98 68.2301 16.45 72.1701 14.17C80.6701 9.24997 83.9201 6.69997 85.2001 5.13997C85.6401 4.91997 86.0501 4.72997 86.4501 4.54997C89.9401 2.95997 90.8601 3.20997 91.0001 3.26997C91.0001 3.42997 90.8101 4.35997 87.9001 6.80997C85.7301 8.62997 82.5501 10.9 78.1501 13.75C69.9501 19.07 58.7201 25.62 47.8601 31.95C36.8201 38.39 25.4001 45.06 17.2201 50.39C12.7901 53.28 9.63007 55.57 7.55007 57.39C5.68007 59.02 3.66007 61.11 4.63007 62.78C4.81007 63.09 5.17007 63.5 5.87007 63.66C6.88007 63.89 8.61007 63.69 13.0601 61.46C11.0401 63.15 9.84007 64.55 9.53007 65.66C9.32007 66.42 9.50007 66.97 9.70007 67.31C9.90007 67.66 10.3001 68.11 11.0901 68.29C12.1401 68.53 13.7801 68.18 15.9801 67.29C14.8601 68.4 14.4401 69.16 14.2701 69.76C14.0701 70.46 14.2501 70.98 14.4301 71.29C14.6301 71.63 15.0301 72.08 15.8101 72.26C17.2601 72.59 19.8601 71.78 23.5401 69.95C19.0801 73.13 16.4901 75.6 15.9901 77.38C15.7701 78.18 15.9601 78.77 16.1701 79.12C16.3401 79.42 16.6801 79.81 17.3101 80.01C15.6501 81.44 14.6601 82.65 14.3701 83.63C14.1501 84.4 14.3401 84.96 14.5301 85.3C14.7301 85.65 15.1401 86.1 15.9301 86.28C16.9401 86.51 18.5001 86.2 20.5801 85.39C16.7001 88.21 14.4401 90.43 13.9901 92.04C13.7701 92.82 13.9601 93.4 14.1601 93.74C14.3101 93.99 14.5501 94.17 14.8401 94.24C15.5001 94.39 16.2201 94.06 19.3801 91.95C18.5301 92.69 17.7201 93.4 17.0901 94C15.9001 95.13 15.1601 95.93 15.6601 96.78C15.7901 97.01 16.0201 97.18 16.2901 97.25C16.3801 97.27 16.4601 97.28 16.5401 97.28C16.9701 97.28 17.4501 96.97 18.8701 96.05C19.3401 95.75 20.0201 95.3 20.3101 95.15C20.4201 95.13 20.5401 95.09 20.6401 95.03C21.1001 94.76 21.2601 94.17 20.9901 93.71C20.9101 93.58 20.8001 93.46 20.6701 93.38C20.9901 93.1 21.3101 92.83 21.6001 92.57C22.8401 91.5 24.1101 90.4 25.0401 89.51C26.2501 88.35 27.0701 87.46 26.5601 86.58C26.4101 86.32 26.1601 86.14 25.8601 86.07C25.0801 85.89 24.1501 86.4 19.6301 89.44C18.5901 90.14 17.3101 91 16.3501 91.6C17.7001 89.79 21.9201 86.29 33.1101 79.53C33.9501 79.02 34.8201 78.51 35.7001 77.98C37.5501 77.55 40.6801 76.21 46.5001 72.81C44.1201 74.71 42.7201 76.23 42.4001 77.38C42.2101 78.07 42.3801 78.58 42.5601 78.89C42.7501 79.21 43.1201 79.63 43.8501 79.8C44.9501 80.05 46.8601 79.81 52.0301 77.09C51.3201 77.85 50.8701 78.52 50.7101 79.1C50.5201 79.78 50.6901 80.29 50.8701 80.59C51.0401 80.88 51.3701 81.25 52.0101 81.4C52.9201 81.61 54.4901 81.42 58.6201 79.31C58.5801 79.4 58.5501 79.49 58.5301 79.57C58.3501 80.2 58.5101 80.67 58.6801 80.96C58.8501 81.25 59.1801 81.62 59.8201 81.76C60.8501 81.99 62.7201 81.71 68.3401 78.55C67.1001 79.68 66.3601 80.63 66.1401 81.41C65.9601 82.06 66.1301 82.55 66.2901 82.84C66.4601 83.13 66.7901 83.5 67.4201 83.64C68.6601 83.92 71.1601 83.45 80.2401 77.8C86.2401 74.07 93.8001 68.91 101.11 63.91C108.41 58.93 115.95 53.78 121.85 50.11C129.03 45.65 131.57 44.8 132.44 44.7C131.95 45.4 130.22 47.12 124.17 51.12C119.08 54.47 112.25 58.59 105.64 62.58C98.4701 66.9 91.0601 71.36 85.7301 74.94C77.6901 80.34 76.5801 82.21 77.4001 83.61C77.5501 83.87 77.8501 84.2 78.4201 84.33C79.4501 84.56 81.2901 83.92 84.1301 82.4C84.0101 82.6 83.9201 82.79 83.8701 82.97C83.7301 83.49 83.8701 83.88 84.0001 84.12C84.1901 84.46 84.5301 84.69 84.9301 84.79C85.0601 84.82 85.2101 84.84 85.3801 84.84C86.5501 84.84 88.7001 83.97 93.9801 80.72C98.1401 78.15 103.4 74.6 108.48 71.18C113.33 67.91 118.34 64.53 122.29 62.07C125.57 60.03 127.43 59.07 128.48 58.62C127.96 59.17 127.13 59.98 125.78 61.16C123.7 62.99 120.94 65.22 118.27 67.38C107.45 76.16 105.7 77.96 106.54 79.41C106.69 79.67 106.94 79.85 107.24 79.92C108.03 80.1 108.98 79.58 113.66 76.41C115.41 75.23 118 73.48 118.84 73.15C119.07 73.2 119.31 73.17 119.53 73.04C119.99 72.77 120.15 72.18 119.88 71.72C119.73 71.46 119.48 71.28 119.18 71.21C118.37 71.02 117.38 71.56 112.58 74.81C112.21 75.06 111.81 75.33 111.41 75.6C111.56 75.46 111.72 75.33 111.89 75.18C114.01 73.33 116.8 71.06 119.5 68.87C130.18 60.21 131.91 58.44 131.08 57C130.89 56.67 130.57 56.44 130.17 56.35C129.97 56.3 129.73 56.3 129.44 56.33C131.29 54.94 132.3 53.89 132.52 53.08C132.66 52.56 132.52 52.17 132.39 51.93C132.24 51.68 131.96 51.36 131.41 51.23C130.39 51 128.46 51.39 121.32 55.83C116.63 58.75 110.65 62.8 104.87 66.72C98.9501 70.74 92.8301 74.9 87.9801 77.9C82.5301 81.28 80.2901 82.18 79.3901 82.39C79.9601 81.62 81.8201 79.83 87.7701 75.9L87.7601 75.95ZM28.7401 18.42C34.3301 14.62 40.1001 10.69 44.7101 7.82997C49.8801 4.61997 52.0201 3.76997 52.8901 3.56997C52.3501 4.28997 50.6101 5.92997 45.1801 9.40997C40.3701 12.5 33.9001 16.26 27.6501 19.9C24.5201 21.72 21.7201 23.36 19.2101 24.85C21.9401 23.04 25.1001 20.9 28.7401 18.42ZM10.8301 32.21C15.7201 29.06 22.2801 25.25 28.6201 21.56C33.2001 18.89 37.9001 16.16 41.9901 13.67C39.0301 15.67 35.9901 17.74 32.9901 19.79C28.6201 22.77 24.1501 25.82 20.0401 28.55C17.0201 30.19 14.1801 31.77 11.6701 33.23C8.37007 35.15 6.05007 36.64 4.40007 37.82C3.67007 38.12 3.21007 38.24 2.93007 38.28C3.38007 37.6 5.02007 35.95 10.8301 32.22V32.21ZM14.0701 36.47C10.6201 38.61 7.95007 40.12 5.91007 41.07C3.68007 42.11 2.74007 42.23 2.38007 42.22C2.55007 41.91 3.11007 41.17 4.94007 39.81C5.07007 39.71 5.20007 39.61 5.34007 39.51C7.14007 38.77 9.86007 37.31 14.1901 34.61C16.2901 33.3 18.6001 31.81 21.0301 30.2C24.9501 28.07 29.1701 25.84 33.3501 23.64C26.4701 28.37 19.6101 33.03 14.0701 36.47ZM65.7301 2.43997C63.9901 3.36997 61.8101 4.63997 59.0901 6.33997C55.6501 8.48997 51.7301 11.09 47.6201 13.87C43.9501 15.87 40.0101 17.95 36.0801 20.03C42.8401 15.42 49.6601 10.8 55.1601 7.39997C58.3901 5.39997 60.8901 3.98997 62.8201 3.07997C64.8101 2.13997 65.7401 1.95997 66.1301 1.93997C66.0601 2.05997 65.9401 2.22997 65.7501 2.44997L65.7301 2.43997ZM17.2901 46.98C13.0601 49.6 9.81007 51.43 7.35007 52.59C4.34007 54 3.29007 54.02 2.99007 53.97C3.06007 53.76 3.36007 53.23 4.51007 52.2C6.80007 51.42 10.5901 49.52 17.2801 45.35C21.5301 42.7 26.4301 39.45 31.5501 36C35.3301 33.98 39.2401 31.92 43.1301 29.87C33.9301 36.14 24.6101 42.46 17.2901 46.99V46.98ZM83.9201 3.62997C78.0301 6.57997 69.2401 12.22 57.7801 19.93C53.8901 22.02 49.8201 24.16 45.7701 26.3C54.4901 20.33 63.2901 14.34 70.2801 10.03C74.3701 7.49997 77.5201 5.73997 79.9001 4.64997C82.2501 3.56997 83.3501 3.37997 83.8301 3.37997C83.9401 3.37997 84.0101 3.37997 84.0601 3.39997C84.0401 3.45997 83.9901 3.53997 83.9201 3.64997V3.62997ZM127.68 35.5C130.14 34.32 131.23 34.1 131.67 34.08C131.45 34.44 130.79 35.24 128.84 36.7C126.98 38.1 124.33 39.83 120.74 41.98C114.03 46.01 104.96 50.95 96.1901 55.74C95.0001 56.39 93.8001 57.04 92.6101 57.7C92.6301 57.68 92.6601 57.67 92.6801 57.65C101.75 51.54 111.13 45.22 118.44 40.72C122.36 38.31 125.38 36.6 127.67 35.5H127.68ZM124.45 30.67C126.94 29.5 128.06 29.31 128.51 29.31C128.6 29.31 128.67 29.31 128.71 29.33C128.65 29.58 128.28 30.44 125.82 32.42C123.84 34 120.96 35.96 117.01 38.4C109.63 42.95 99.5801 48.51 89.8701 53.88C86.3501 55.82 83.0401 57.66 79.9501 59.39C82.5301 57.64 85.1301 55.87 87.7101 54.11C97.2701 47.59 107.16 40.85 114.81 36.11C118.91 33.57 122.06 31.8 124.45 30.67ZM53.0401 65.9C58.2601 62.41 63.9801 58.54 70.1801 54.32C75.9201 50.42 81.7601 46.45 87.3601 42.71C90.1301 41.22 92.7501 39.8 95.2401 38.44C90.1501 41.82 84.8001 45.44 79.5401 49C73.1001 53.36 66.5201 57.81 60.4401 61.8C57.8801 63.21 55.4101 64.58 53.0401 65.9ZM105.96 36.18C98.5501 40.67 89.4001 45.82 79.9201 51.06C80.1501 50.9 80.3801 50.75 80.6101 50.59C91.0501 43.53 101.85 36.22 110.2 31.08C114.68 28.32 118.12 26.39 120.71 25.17C121.51 24.79 122.17 24.52 122.72 24.3C120.86 26.35 116.28 29.92 105.95 36.18H105.96ZM122.63 22.28C121.83 22.56 120.85 22.97 119.64 23.55C119.9 23.34 120.17 23.13 120.41 22.93C121.37 22.57 122.09 22.37 122.63 22.28ZM116.62 19.85C119.59 18.46 120.93 18.22 121.49 18.22C121.7 18.22 121.8 18.25 121.84 18.27C121.84 18.3 121.84 18.37 121.82 18.45C121.66 19.01 121.01 19.89 119.4 21.26C113.06 23.7 101.89 30.69 86.3701 41.06C80.5101 44.2 74.3601 47.44 68.3101 50.63C67.9901 50.8 67.6701 50.97 67.3501 51.13C68.5201 50.35 69.7001 49.55 70.9001 48.74C82.8401 40.69 95.1901 32.36 104.7 26.52C109.8 23.39 113.7 21.21 116.62 19.84V19.85ZM113.53 13.93C113.81 13.93 113.91 13.99 113.91 13.99C113.93 14.03 113.93 14.11 113.9 14.23C113.53 15.57 110.54 18.74 98.3701 26.24C89.3501 31.8 77.3301 38.52 65.7001 45.01C59.0301 48.73 52.9401 52.15 47.4801 55.27C53.0301 51.58 59.2601 47.36 66.1201 42.68C77.3501 35.03 88.9701 27.11 97.9101 21.6C102.7 18.65 106.36 16.61 109.11 15.35C111.76 14.14 113 13.93 113.55 13.93H113.53ZM104.44 11.36C107.1 10.14 108.34 9.91997 108.88 9.91997C109.1 9.91997 109.2 9.94997 109.24 9.96997C109.24 10.12 109.05 11.11 105.78 13.69C103.38 15.59 99.8401 17.96 94.9701 20.92C85.8901 26.46 73.4901 33.25 61.5001 39.82C58.5701 41.42 55.6101 43.05 52.6901 44.66C55.5601 42.71 58.5801 40.67 61.7201 38.52C72.8901 30.91 84.4301 23.05 93.3101 17.57C98.0601 14.64 101.7 12.6 104.43 11.34L104.44 11.36ZM53.7501 35.52C64.9501 27.96 76.5301 20.14 85.5201 14.62C90.3401 11.66 94.0401 9.59997 96.8201 8.30997C99.6201 7.00997 100.89 6.78997 101.43 6.78997C101.62 6.78997 101.72 6.81997 101.76 6.82997C101.74 7.00997 101.49 7.96997 98.5001 10.35C96.2401 12.15 92.9201 14.39 88.3601 17.2C79.8301 22.45 68.1001 28.94 56.7601 35.21C51.3701 38.19 46.3801 40.97 41.8101 43.53C45.7401 40.9 49.7601 38.18 53.7401 35.5L53.7501 35.52ZM11.5101 66.4C11.4301 66.38 11.3701 66.35 11.3601 66.34C11.3601 66.34 11.1901 65.48 14.4501 62.8C16.7301 60.93 20.1401 58.59 24.8801 55.65C33.7301 50.17 45.9201 43.43 57.7001 36.91C63.8101 33.53 69.3901 30.43 74.3901 27.6C69.8801 30.63 65.2201 33.81 60.6201 36.94C49.5801 44.46 38.1601 52.24 29.1201 57.86C16.8901 65.45 12.7901 66.7 11.5001 66.4H11.5101ZM20.8501 69.08C17.1501 70.73 16.2501 70.4 16.1201 70.33C16.1401 70.15 16.4201 69.19 19.6201 66.71C21.9701 64.89 25.4001 62.62 30.0901 59.77C38.8501 54.46 50.8401 47.88 62.4401 41.53C66.0001 39.58 69.3901 37.72 72.6001 35.94C70.0801 37.65 67.5401 39.38 65.0201 41.1C53.4701 48.97 41.5301 57.11 32.3301 62.75C27.4001 65.77 23.6401 67.85 20.8501 69.09V69.08ZM17.8501 77.89C18.2301 76.52 21.2701 73.28 33.6201 65.66C42.7501 60.02 54.9001 53.24 66.6401 46.68C76.7901 41.01 85.5901 36.06 92.8201 31.8C85.5801 36.52 77.6101 41.89 69.8201 47.15C63.3401 51.52 56.7401 55.97 50.5101 60.08C36.4501 67.62 26.0601 73.51 20.0901 77.83C18.3801 78.37 17.9001 78.18 17.8301 78.14C17.8001 78.07 17.8301 77.95 17.8501 77.88V77.89ZM16.3601 84.4C16.2701 84.38 16.2201 84.35 16.2101 84.34C16.2101 84.33 16.2001 84.27 16.2301 84.16C16.4501 83.39 17.6101 82.01 21.0301 79.54C26.6001 77.66 36.9201 71.35 51.5001 61.73C57.2501 58.65 63.2701 55.47 69.2101 52.34C69.8901 51.98 70.5701 51.62 71.2401 51.27C70.5301 51.75 69.8101 52.24 69.0901 52.73C57.1701 60.83 44.8401 69.21 35.1501 75.23C34.7101 75.5 34.3101 75.75 33.8901 76.01C33.5901 75.75 33.1501 75.68 32.7801 75.89C32.4001 76.11 32.2401 76.55 32.3401 76.95C21.4401 83.54 17.6101 84.68 16.3601 84.39V84.4ZM48.6401 76.65C45.4501 78.12 44.4901 78.01 44.2701 77.95C44.3201 77.72 44.6801 76.79 47.4401 74.56C49.5801 72.84 52.6901 70.7 56.9501 68.03C64.9001 63.04 75.6801 56.93 86.1001 51.03C92.1001 47.63 98.2201 44.16 103.8 40.9C98.3301 44.52 92.4101 48.56 86.6101 52.51C76.7601 59.23 66.5701 66.18 58.6301 71.07C54.3801 73.69 51.1101 75.52 48.6401 76.65ZM56.6801 78.15C54.0201 79.43 52.9701 79.58 52.6001 79.57C52.7201 79.25 53.2301 78.38 55.4701 76.6C57.4201 75.05 60.2601 73.14 64.1301 70.75C71.3701 66.29 81.2501 60.83 90.8001 55.55C93.8901 53.84 96.8201 52.21 99.6001 50.67C96.9401 52.45 94.2601 54.26 91.5901 56.05C82.5401 62.15 73.1801 68.45 65.8801 72.94C61.9701 75.34 58.9601 77.05 56.6701 78.15H56.6801ZM64.0601 78.66C61.8901 79.7 60.8901 79.9 60.4801 79.92C60.6801 79.56 61.3201 78.72 63.3801 77.16C65.3001 75.7 68.0501 73.9 71.7701 71.66C78.7201 67.47 88.0701 62.37 97.1101 57.44C97.3101 57.33 97.5001 57.23 97.7001 57.12C96.9101 57.66 96.1201 58.19 95.3301 58.73C87.2301 64.24 78.8401 69.94 72.3101 73.98C68.8101 76.14 66.1101 77.68 64.0501 78.67L64.0601 78.66ZM100.04 62.35C92.6401 67.4 85.0001 72.62 78.9901 76.34C75.7801 78.33 73.2901 79.74 71.3801 80.65C69.3401 81.62 68.4201 81.79 68.0601 81.8C68.2101 81.46 68.7601 80.65 70.6901 79.09C72.4701 77.66 75.0201 75.9 78.5001 73.7C84.9901 69.61 93.6801 64.68 102.08 59.92C105.37 58.05 108.59 56.22 111.65 54.47C107.9 56.98 103.93 59.68 100.04 62.34V62.35ZM101.12 58.25C97.3601 60.38 93.8601 62.38 90.6401 64.23C92.5601 62.93 94.5001 61.61 96.4201 60.31C104.7 54.68 113.27 48.86 119.98 44.71C123.57 42.49 126.35 40.92 128.47 39.92C130.68 38.87 131.69 38.68 132.11 38.66C131.69 39.34 129.91 41.18 122.6 45.74C116.76 49.38 109.16 53.69 101.12 58.25ZM122.25 57.56C126.84 54.7 129.06 53.67 130.11 53.32C129.35 54.07 127.56 55.5 123.35 58.12C119.02 60.81 113.26 64.08 107.69 67.25C107.49 67.36 107.3 67.47 107.1 67.58C112.46 63.94 117.91 60.26 122.25 57.56ZM93.0301 78.02C96.9501 75.58 102.05 72.67 107.12 69.79C102.21 73.1 97.1601 76.51 93.1301 79C89.4401 81.29 87.4801 82.26 86.4401 82.66C87.2701 81.88 89.0901 80.47 93.0301 78.02Z" fill="#F5D012"/>
</g>
<defs>
<clipPath id="clip0_207_1437">
<rect width="134.59" height="97.29" fill="white"/>
</clipPath>
</defs>
</svg>
